<svg version="1.1" id="Layer_1" xmlns="http://www.w3.org/2000/svg" xmlns:xlink="http://www.w3.org/1999/xlink" x="0px" y="0px"
	 width="100%" viewBox="0 0 775 887" enable-background="new 0 0 775 887" xml:space="preserve">
<rect width="760" height="878" x="10" y="10" rx="10" ry="10" fill="#fff"/>
<path fill="none" opacity="1.000000" stroke="#000000" stroke-linecap="round" stroke-linejoin="round" stroke-width="6.000000"
	d="
M24.500000,869.750000 
	C29.183779,870.624939 33.832829,869.405945 38.496197,869.311768 
	C64.711174,868.782227 90.803925,871.589355 116.998062,871.774475 
	C127.297585,871.847168 137.703995,871.757812 147.990799,872.610962 
	C163.646515,873.909485 179.399994,873.454773 195.000702,875.494629 
	C195.328430,875.537476 195.667664,875.516968 195.999847,875.497498 
	C208.361984,874.774597 220.644577,877.075439 232.999527,876.489868 
	C243.529831,875.990723 253.959732,877.892151 264.501923,877.560913 
	C282.494751,876.995361 300.511841,876.801086 318.490082,876.202271 
	C330.329803,875.807861 342.224121,876.478333 353.984283,875.337830 
	C365.512177,874.219849 377.025574,875.209961 388.495056,874.427368 
	C418.654938,872.369629 448.839752,873.541382 478.998810,873.710571 
	C497.989319,873.817078 517.024658,873.842285 535.988647,874.739624 
	C547.309509,875.275269 558.733215,875.537659 570.018921,877.384216 
	C574.755920,878.159363 579.720398,878.156067 584.505066,878.256165 
	C592.861511,878.430725 601.134766,879.556763 609.499695,879.586487 
	C631.833923,879.665894 654.209595,879.421753 676.488159,880.705383 
	C699.669983,882.041016 722.829346,882.005493 745.999084,881.857910 
	C753.474609,881.810364 761.122803,883.411377 768.539062,880.603210 
	C770.013489,880.045044 771.260376,879.435303 772.528931,878.541077 
	C775.243469,876.627441 776.511353,875.540588 773.161804,872.331116 
	C768.793762,868.145752 768.436707,861.716492 767.590820,855.986572 
	C765.736389,843.424927 763.381714,830.963867 761.052185,818.490234 
	C760.379272,814.886963 760.075439,811.168762 760.045715,807.499634 
	C759.932373,793.500549 759.606506,779.486023 760.102234,765.503601 
	C760.687500,748.996765 759.675720,732.463562 760.664062,716.009827 
	C761.697876,698.799072 760.699219,681.659302 760.354919,664.502930 
	C760.163879,654.986694 758.296387,645.515564 757.568726,635.994751 
	C757.048523,629.188477 757.366333,622.321411 756.960205,615.502380 
	C755.986389,599.148804 756.508057,582.778992 757.712280,566.515747 
	C758.810547,551.682373 758.508484,536.766541 760.494507,521.999268 
	C760.538513,521.671875 760.516968,521.332336 760.497498,521.000122 
	C759.774597,508.638000 761.276978,496.333374 761.657288,484.004852 
	C762.480225,457.334930 762.854980,430.663483 762.369080,404.002380 
	C762.028748,385.330963 763.364136,366.567200 761.748291,348.021942 
	C758.944275,315.839417 760.355408,283.669281 760.080566,251.499313 
	C759.743164,212.002197 760.364990,172.495178 759.843994,133.002060 
	C759.588867,113.664925 758.689453,94.308311 757.158081,74.987473 
	C756.356812,64.877808 755.226868,54.718578 755.945007,44.496136 
	C756.400208,38.016819 755.183777,31.537714 755.884521,24.987646 
	C756.411560,20.061108 753.901306,17.883677 749.000854,17.489067 
	C736.998169,16.522547 724.972534,15.748444 713.008301,14.425223 
	C702.518066,13.265018 691.997925,12.471746 681.513367,11.372654 
	C669.019775,10.062963 656.538147,9.564404 644.000671,9.435755 
	C638.496765,9.379277 632.999817,9.312615 627.500061,9.311110 
	C621.524719,9.309476 615.809326,10.540400 610.010620,11.328290 
	C602.360229,12.367778 594.745300,13.467772 587.000122,13.519120 
	C570.761169,13.626780 554.602234,14.875318 538.492737,16.943590 
	C534.207764,17.493731 529.792480,17.380489 525.502258,17.324804 
	C516.953918,17.213852 508.505859,18.323862 500.006378,18.660952 
	C485.150146,19.250149 470.334442,20.847368 455.499603,21.994837 
	C446.321320,22.704773 437.212738,24.000343 428.009552,24.637722 
	C401.506317,26.473232 374.996216,25.338947 348.500244,25.306637 
	C336.354584,25.291824 324.120392,25.226284 312.012299,24.333130 
	C289.997406,22.709196 267.927765,22.702337 246.014313,23.788694 
	C201.004089,26.020075 156.001724,24.945364 111.001389,25.596041 
	C94.659416,25.832333 78.254189,26.449602 62.026573,28.240765 
	C50.332439,29.531532 38.712688,32.006180 26.988312,33.401810 
	C22.530092,33.932499 17.892309,33.245495 13.523754,34.577885 
	C11.574611,35.172356 10.743596,32.737148 9.000000,33.500000 
"/>
<path fill="none" opacity="1.000000" stroke="#000000" stroke-linecap="round" stroke-linejoin="round" stroke-width="6.000000"
	d="
M12.500000,35.500000 
	C10.451276,41.541096 11.066396,47.793877 10.982946,53.999771 
	C10.891046,60.834106 10.619428,67.665909 10.510227,74.500160 
	C10.307844,87.166260 9.701424,99.849373 10.137307,112.495270 
	C10.534026,124.004883 9.969568,135.516052 10.571214,146.996262 
	C11.339716,161.660355 12.046839,176.325912 12.772017,190.986542 
	C13.076754,197.147247 12.878496,203.362885 13.554726,209.493958 
	C14.748386,220.316360 13.684152,231.231720 14.733300,241.977219 
	C15.600459,250.858795 15.045776,259.671539 15.505201,268.499725 
	C16.215973,282.157745 16.007763,295.863708 16.776836,309.484375 
	C17.333445,319.342163 16.915987,329.180115 17.531118,338.998047 
	C19.691826,373.484650 17.952599,408.001770 18.478502,442.500336 
	C18.765572,461.331848 18.567232,480.174011 19.088293,498.997559 
	C19.471567,512.843323 20.535143,526.676270 21.542061,540.496948 
	C22.332445,551.345520 23.377153,562.179810 24.534241,572.996338 
	C25.712715,584.012878 27.335377,594.982971 28.447664,606.005310 
	C29.370104,615.146179 29.462095,624.378601 30.574217,633.490967 
	C33.211464,655.099548 31.658846,676.862610 33.369129,698.510315 
	C34.141190,708.282654 33.320095,718.170776 33.542255,727.999023 
	C33.873787,742.665710 33.909653,757.354370 33.762905,771.997620 
	C33.535740,794.666260 33.785370,817.334106 33.512711,840.000183 
	C33.430519,846.832458 33.500000,853.666687 33.500000,860.500000 
"/>
<path fill="none" opacity="1.000000" stroke="#000000" stroke-linecap="round" stroke-linejoin="round" stroke-width="6.000000"
	d="
M744.500000,865.500000 
	C744.666687,853.833313 745.044250,842.164795 744.940430,830.500549 
	C744.837402,818.917786 743.294312,807.466309 741.751648,795.966248 
	C740.131226,783.886108 737.696960,771.841675 737.915466,759.498474 
	C738.133789,747.171997 737.578064,734.833740 737.521118,722.499878 
	C737.438721,704.666992 737.201904,686.827087 737.572998,669.001526 
	C738.073120,644.979736 735.696472,621.008606 736.542114,597.001465 
	C737.346680,574.161255 738.876648,551.341553 739.375488,528.497253 
	C739.744019,511.623383 741.725891,494.871643 742.165894,478.004333 
	C742.440369,467.481049 744.549194,457.018250 745.438660,446.494812 
	C746.309692,436.189636 747.210388,425.908813 747.205139,415.499908 
	C747.198059,401.341278 746.329956,387.173157 747.381897,372.991241 
	C747.947021,365.373840 746.975220,357.702637 747.375244,349.993530 
	C748.809387,322.354187 749.432617,294.682922 749.527039,267.000092 
	C749.606201,243.795425 748.480164,220.650009 747.207642,197.488586 
	C746.814636,190.335953 746.669067,183.171234 746.169312,175.988220 
	C744.838074,156.856186 744.470764,137.659256 743.438049,118.503342 
	C742.969788,109.816986 741.400330,101.181419 741.104492,92.496445 
	C740.690491,80.343880 741.151184,68.164017 740.938354,56.001080 
	C740.826538,49.612659 740.670532,43.174442 738.579590,36.973171 
	C738.220276,35.907646 737.931946,34.964172 736.988708,34.524208 
	C729.548645,31.053789 722.009705,27.767496 713.503845,29.026186 
	C701.821716,30.754908 690.107971,32.360470 678.516174,34.584194 
	C666.388794,36.910652 654.159546,35.669193 641.993042,36.381546 
	C625.354126,37.355766 608.577515,36.615292 592.028564,38.283478 
	C579.085815,39.588158 566.290344,39.085140 553.514587,38.271175 
	C544.168335,37.675720 534.795959,36.152035 525.471619,34.679642 
	C518.616272,33.597122 511.499695,34.178764 504.500092,33.996925 
	C495.834473,33.771805 487.005127,33.031811 478.533295,33.846218 
	C465.184265,35.129463 451.807495,34.910381 438.480042,35.630836 
	C427.845764,36.205696 418.007812,39.922504 407.511261,40.660301 
	C398.011261,41.328056 388.566376,42.801384 379.000122,42.496162 
	C366.979248,42.112625 354.913727,42.231392 343.020477,43.669392 
	C329.196686,45.340816 315.316498,46.349136 301.481842,47.830471 
	C295.575226,48.462917 289.536438,48.704262 283.498291,48.611584 
	C264.002869,48.312355 244.499939,48.472050 225.000031,48.513695 
	C217.148087,48.530464 209.328888,48.021549 201.494537,47.602097 
	C195.188202,47.264454 188.818024,48.197048 182.502884,47.931328 
	C164.074951,47.155933 145.694504,45.556847 127.516617,42.404190 
	C118.587418,40.855560 109.761711,41.596592 101.019676,42.661518 
	C91.850624,43.778458 82.692688,45.022198 73.503143,46.028706 
	C62.341698,47.251179 51.254951,49.114693 40.002354,49.559509 
	C36.408161,49.701584 33.477978,53.503548 32.975357,57.496899 
	C32.407269,62.010357 32.505337,66.481644 32.965679,71.003494 
	C34.268303,83.798904 32.616482,96.713509 34.805809,109.533165 
	C35.567230,113.991684 34.803383,118.832878 34.806511,123.500130 
	C34.809551,128.038589 35.258335,132.515808 35.573990,136.994781 
	C36.478584,149.830612 35.220596,162.654037 35.833199,175.507950 
	C36.447350,188.394318 37.190517,201.212601 38.800423,214.025070 
	C39.345966,218.366806 40.126854,222.932404 39.099003,227.522171 
	C38.327454,230.967438 39.635643,234.558105 40.159588,237.975540 
	C42.846973,255.503983 42.091064,272.739044 38.145874,290.033264 
	C36.442234,297.501404 36.603134,305.374542 35.440281,312.990875 
	C33.413788,326.263916 33.721188,339.682068 32.556252,353.004913 
	C32.194691,357.139954 32.523739,361.333496 32.495975,365.499969 
	C32.361584,385.669830 31.046593,405.814117 31.447107,426.001038 
	C31.777697,442.663513 31.127373,459.343628 32.023380,475.998749 
	C32.741016,489.338318 33.240536,502.710541 34.607540,515.988953 
	C36.328094,532.701538 38.580517,549.371460 41.086315,565.987000 
	C42.841202,577.623352 42.436302,589.347778 43.477798,601.002014 
	C45.946007,628.620728 45.101704,656.325928 45.710426,683.995361 
	C45.956211,695.167542 48.756313,706.263367 49.497925,717.500122 
	C50.289440,729.493103 51.901348,741.356873 51.753914,753.503052 
	C51.432362,779.993103 52.352364,806.504272 53.114975,832.996704 
	C53.283047,838.835510 52.926258,844.896179 55.420544,850.535156 
	C55.738483,851.253906 56.363728,853.284912 54.000000,853.000000 
"/>
<path fill="none" opacity="1.000000" stroke="#000000" stroke-linecap="round" stroke-linejoin="round" stroke-width="8.000000"
	d="
M56.000000,852.500000 
	C64.956306,854.013062 74.045540,853.230957 82.999214,853.206970 
	C95.321686,853.174011 107.675270,853.577637 119.997688,852.954285 
	C124.178955,852.742798 128.333511,851.571777 132.499969,851.573547 
	C151.394760,851.581421 170.351593,850.653564 189.016525,854.927856 
	C192.065628,855.626099 195.254410,855.529663 198.517319,855.148010 
	C204.345352,854.466370 210.084305,856.605286 216.000381,856.574585 
	C226.179596,856.521790 236.226791,858.838135 246.508453,858.121155 
	C253.297150,857.647827 260.190033,858.036865 266.994171,858.573914 
	C275.752899,859.265137 283.951569,856.167908 292.486389,855.356689 
	C298.323700,854.801819 304.511475,856.372009 310.016266,853.026733 
	C311.407593,852.181274 313.096863,851.824829 314.484772,850.975098 
	C325.981415,843.936340 338.821686,842.952332 351.463928,844.753174 
	C366.117798,846.840576 380.834259,848.294922 395.525787,849.737488 
	C403.065582,850.477844 410.821899,849.748962 418.507050,850.419189 
	C432.306366,851.622742 446.166840,850.860596 460.000244,850.969788 
	C476.332550,851.098694 492.666656,850.991577 509.000000,851.004272 
	C515.283508,851.009155 521.408875,850.035828 527.510010,848.540955 
	C536.896118,846.241333 546.383667,846.152832 556.011353,847.139282 
	C563.377441,847.893982 570.675293,849.212036 578.013245,849.847290 
	C588.662903,850.769226 599.171448,852.818115 608.352844,857.772644 
	C618.689880,863.350708 629.476379,864.155151 640.502258,864.398071 
	C653.852722,864.692261 667.193237,863.695435 680.499695,862.496399 
	C683.001953,862.270996 685.357971,863.146545 688.023621,862.619446 
	C702.672791,859.722656 717.403381,860.659973 731.971619,863.164978 
	C736.597107,863.960266 739.787781,862.666260 743.000000,860.000000 
"/>
<path fill="none" opacity="1.000000" stroke="#000000" stroke-linecap="round" stroke-linejoin="round" stroke-width="3.000000"
	d="
M743.000000,854.000000 
	C740.976196,852.737915 738.717224,853.004700 736.500000,853.000000 
"/>
</svg>