<svg version="1.1" id="Layer_1" xmlns="http://www.w3.org/2000/svg" xmlns:xlink="http://www.w3.org/1999/xlink" x="0px" y="0px"
	 width="100%" viewBox="0 0 1191 768" enable-background="new 0 0 1191 768" xml:space="preserve">
<rect width="1175" height="770" x="10" y="10" fill="#fff"/>
<path fill="#101010" opacity="1.000000" stroke="none" 
	d="
M1.000000,15.437500 
	C6.990794,9.997869 13.021734,7.874388 21.585352,9.049917 
	C44.937675,12.255494 68.479782,14.658247 92.022438,15.758239 
	C125.260437,17.311230 158.571533,17.230869 191.841919,18.180445 
	C221.093796,19.015327 250.328629,20.434689 279.578674,21.349812 
	C298.542145,21.943106 317.523895,21.940212 336.489380,22.484695 
	C357.427979,23.085827 378.355652,24.057678 399.291260,24.776094 
	C424.667450,25.646896 449.591064,22.530291 473.986542,15.575666 
	C488.093567,11.554059 502.545624,11.834490 516.960999,11.070467 
	C548.826782,9.381561 580.675537,7.371620 612.532776,5.518895 
	C626.800354,4.689133 641.068481,3.307881 655.341675,3.236419 
	C709.503906,2.965243 763.668884,2.958507 817.831604,3.178201 
	C864.959045,3.369359 912.084045,4.095296 959.211365,4.400113 
	C988.522217,4.589693 1017.848694,3.881125 1047.143555,4.591804 
	C1076.209473,5.296929 1105.244019,7.282441 1134.293335,8.688197 
	C1138.450439,8.889369 1142.613159,9.098763 1146.771729,9.070271 
	C1148.112183,9.061088 1149.425293,8.195772 1150.790161,7.908121 
	C1153.076172,7.426270 1155.885376,6.120932 1157.561890,6.968023 
	C1159.286621,7.839526 1160.786011,10.828355 1160.893433,12.965527 
	C1161.752686,30.067482 1161.883911,47.210857 1162.962769,64.295792 
	C1164.460205,88.010529 1166.703857,111.677185 1168.396973,135.380936 
	C1169.261475,147.484772 1169.821777,159.618774 1170.175415,171.749176 
	C1171.508301,217.471222 1172.565430,263.201569 1173.983521,308.920837 
	C1175.344727,352.803131 1177.182251,396.670837 1178.496460,440.554352 
	C1179.114502,461.192657 1179.121948,481.852692 1179.182617,502.503540 
	C1179.285400,537.464844 1178.499634,572.445557 1179.423828,607.382751 
	C1180.240845,638.265686 1182.906738,669.098816 1184.692505,699.957642 
	C1185.057617,706.267273 1184.787720,712.628967 1185.426880,718.903870 
	C1186.550171,729.932922 1188.168457,740.911133 1189.535767,751.916077 
	C1189.874268,754.641663 1190.028198,757.603271 1186.403564,758.117554 
	C1182.668701,758.647461 1182.175903,755.800781 1181.946045,752.981995 
	C1181.933105,752.823181 1181.829590,752.671692 1181.512939,751.872864 
	C1178.979370,751.872864 1176.183105,751.872864 1173.386841,751.872864 
	C1115.890137,751.872864 1058.392822,751.711548 1000.897034,751.930054 
	C963.097839,752.073669 925.281250,752.162537 887.507996,753.378784 
	C848.804382,754.625000 810.128601,756.960449 771.468994,759.289795 
	C734.319397,761.528259 697.241394,765.505188 660.067932,766.661133 
	C612.466797,768.141479 564.799683,767.974731 517.164612,767.751892 
	C472.728210,767.544006 428.297668,765.789612 383.862427,765.691345 
	C316.062012,765.541443 248.259995,766.395386 180.458176,766.497009 
	C145.508316,766.549377 110.557571,765.877563 75.606812,765.582336 
	C69.307274,765.529114 63.003647,765.641174 56.705692,765.814453 
	C51.282108,765.963684 48.408630,763.682129 47.491497,758.373718 
	C45.914722,749.247192 43.411556,740.187927 42.819996,731.002380 
	C41.351917,708.206421 40.980431,685.342224 39.729191,662.529480 
	C38.173149,634.159546 36.146114,605.815552 34.379086,577.456848 
	C33.242279,559.212463 32.682224,540.918457 31.024355,522.723145 
	C27.910477,488.547882 28.114113,454.300781 27.783659,420.055328 
	C27.475159,388.084839 27.440554,356.107513 26.712748,324.146240 
	C25.678946,278.747345 24.701963,233.332855 22.555756,187.979202 
	C21.380466,163.143021 17.691364,138.432693 15.451246,113.637123 
	C14.315569,101.066475 14.862864,88.276627 12.893893,75.864342 
	C10.027027,57.791775 5.576159,39.970482 1.400331,22.021027 
	C1.000000,19.958334 1.000000,17.916666 1.000000,15.437500 
M1165.793091,201.311096 
	C1165.659668,138.774078 1159.047974,76.835938 1148.999268,15.517701 
	C1145.796509,14.978642 1143.055420,14.236811 1140.283447,14.093554 
	C1107.760376,12.412722 1075.245850,9.854506 1042.703369,9.405573 
	C971.914246,8.429022 901.110535,8.435244 830.312256,8.239694 
	C772.152222,8.079051 713.990784,8.055138 655.831482,8.314269 
	C641.392883,8.378600 626.958069,9.734952 612.525330,10.564051 
	C580.168579,12.422801 547.818298,14.396269 515.457031,16.172621 
	C501.706116,16.927427 487.910248,16.745068 474.448853,20.525343 
	C450.677887,27.200777 426.471283,30.584599 401.708374,29.590422 
	C386.254333,28.969973 370.789093,28.608471 355.326721,28.217911 
	C331.537689,27.617029 307.741882,27.246302 283.957947,26.494028 
	C254.046448,25.547945 224.150253,24.089760 194.236084,23.265163 
	C158.308060,22.274794 122.369850,24.296785 86.409760,20.916985 
	C65.458847,18.947857 44.171463,20.558746 23.035469,20.558867 
	C20.108103,20.558882 17.180735,20.558868 13.916299,20.558868 
	C14.023602,22.467949 14.052433,24.263866 14.236185,26.043789 
	C15.514344,38.424683 17.185793,50.777454 18.037994,63.186844 
	C19.244720,80.758614 19.441469,98.403778 20.817881,115.958916 
	C22.816036,141.443924 26.470783,166.831009 27.645836,192.341537 
	C29.750301,238.029724 30.722183,283.774323 31.796692,329.504059 
	C32.422577,356.140747 31.928839,382.805206 32.649139,409.437958 
	C33.800041,451.991821 35.265945,494.541809 37.123798,537.070496 
	C38.545349,569.611572 40.574959,602.130737 42.720188,634.634094 
	C44.207245,657.165161 46.272728,679.659668 48.226433,702.157776 
	C49.719643,719.352966 51.550251,736.519348 52.981258,753.719299 
	C53.304688,757.606750 55.058949,758.686829 58.563435,758.835388 
	C71.848885,759.398315 85.121086,760.496216 98.409607,760.720215 
	C131.349335,761.275574 164.295792,761.774414 197.238678,761.724243 
	C256.871490,761.633423 316.504395,760.777283 376.135803,760.906006 
	C421.911407,761.004883 467.683075,762.461548 513.459656,762.696228 
	C557.425415,762.921570 601.409668,762.967407 645.358398,761.930115 
	C678.413147,761.149963 711.429504,758.617798 744.454102,756.711182 
	C792.730957,753.923950 840.969727,750.209106 889.281128,748.370911 
	C931.199829,746.776001 973.195923,747.025696 1015.159485,746.847046 
	C1067.819580,746.622742 1120.481323,746.802551 1173.142334,746.766541 
	C1175.934570,746.764587 1178.726440,746.377075 1181.545532,746.167053 
	C1181.646240,745.077881 1181.793945,744.424805 1181.753540,743.783691 
	C1179.890259,714.267883 1177.358521,684.776855 1176.286377,655.232727 
	C1174.693481,611.338440 1173.882568,567.410339 1173.235962,523.489380 
	C1172.912720,501.531403 1174.377686,479.540100 1173.828979,457.593994 
	C1172.648682,410.385773 1170.598755,363.199951 1169.074829,315.999481 
	C1167.850830,278.092194 1166.877563,240.176773 1165.793091,201.311096 
z"/>
<path fill="#F8F8F8" opacity="1.000000" stroke="none" 
	d="
M1165.792969,201.788025 
	C1166.877563,240.176773 1167.850830,278.092194 1169.074829,315.999481 
	C1170.598755,363.199951 1172.648682,410.385773 1173.828979,457.593994 
	C1174.377686,479.540100 1172.912720,501.531403 1173.235962,523.489380 
	C1173.882568,567.410339 1174.693481,611.338440 1176.286377,655.232727 
	C1177.358521,684.776855 1179.890259,714.267883 1181.753540,743.783691 
	C1181.793945,744.424805 1181.646240,745.077881 1181.545532,746.167053 
	C1178.726440,746.377075 1175.934570,746.764587 1173.142334,746.766541 
	C1120.481323,746.802551 1067.819580,746.622742 1015.159485,746.847046 
	C973.195923,747.025696 931.199829,746.776001 889.281128,748.370911 
	C840.969727,750.209106 792.730957,753.923950 744.454102,756.711182 
	C711.429504,758.617798 678.413147,761.149963 645.358398,761.930115 
	C601.409668,762.967407 557.425415,762.921570 513.459656,762.696228 
	C467.683075,762.461548 421.911407,761.004883 376.135803,760.906006 
	C316.504395,760.777283 256.871490,761.633423 197.238678,761.724243 
	C164.295792,761.774414 131.349335,761.275574 98.409607,760.720215 
	C85.121086,760.496216 71.848885,759.398315 58.563435,758.835388 
	C55.058949,758.686829 53.304688,757.606750 52.981258,753.719299 
	C51.550251,736.519348 49.719643,719.352966 48.226433,702.157776 
	C46.272728,679.659668 44.207245,657.165161 42.720188,634.634094 
	C40.574959,602.130737 38.545349,569.611572 37.123798,537.070496 
	C35.265945,494.541809 33.800041,451.991821 32.649139,409.437958 
	C31.928839,382.805206 32.422577,356.140747 31.796692,329.504059 
	C30.722183,283.774323 29.750301,238.029724 27.645836,192.341537 
	C26.470783,166.831009 22.816036,141.443924 20.817881,115.958916 
	C19.441469,98.403778 19.244720,80.758614 18.037994,63.186844 
	C17.185793,50.777454 15.514344,38.424683 14.236185,26.043789 
	C14.052433,24.263866 14.023602,22.467949 13.916299,20.558868 
	C17.180735,20.558868 20.108103,20.558882 23.035469,20.558867 
	C44.171463,20.558746 65.458847,18.947857 86.409760,20.916985 
	C122.369850,24.296785 158.308060,22.274794 194.236084,23.265163 
	C224.150253,24.089760 254.046448,25.547945 283.957947,26.494028 
	C307.741882,27.246302 331.537689,27.617029 355.326721,28.217911 
	C370.789093,28.608471 386.254333,28.969973 401.708374,29.590422 
	C426.471283,30.584599 450.677887,27.200777 474.448853,20.525343 
	C487.910248,16.745068 501.706116,16.927427 515.457031,16.172621 
	C547.818298,14.396269 580.168579,12.422801 612.525330,10.564051 
	C626.958069,9.734952 641.392883,8.378600 655.831482,8.314269 
	C713.990784,8.055138 772.152222,8.079051 830.312256,8.239694 
	C901.110535,8.435244 971.914246,8.429022 1042.703369,9.405573 
	C1075.245850,9.854506 1107.760376,12.412722 1140.283447,14.093554 
	C1143.055420,14.236811 1145.796509,14.978642 1148.999268,15.517701 
	C1159.047974,76.835938 1165.659668,138.774078 1165.792969,201.788025 
M55.463772,645.513428 
	C55.334400,651.324524 54.747978,657.168518 55.164364,662.940247 
	C56.259880,678.125854 57.734402,693.285461 59.170692,708.444702 
	C60.045567,717.678528 60.989510,726.910706 62.191097,736.105957 
	C62.641884,739.555603 65.003479,741.913757 68.696877,741.609802 
	C74.455322,741.135864 80.161003,739.847900 85.919983,739.586487 
	C102.003914,738.856384 118.107391,738.011902 134.195831,738.139038 
	C143.262512,738.210571 152.292679,740.739136 161.378036,741.058289 
	C181.123367,741.752014 200.897690,742.129883 220.652618,741.921997 
	C250.058014,741.612671 279.456879,740.684570 308.858551,740.021362 
	C323.821198,739.683838 338.782623,739.219604 353.747162,739.069885 
	C361.049469,738.996765 368.358978,739.754700 375.662872,739.714417 
	C393.944183,739.613586 412.223724,739.229919 430.504822,739.040527 
	C444.124756,738.899353 457.750183,739.068420 471.365540,738.761963 
	C484.992432,738.455139 498.627502,737.009521 512.227844,737.340942 
	C538.484314,737.980957 564.714233,739.642517 590.964355,740.638916 
	C605.565002,741.193115 620.198425,740.950073 634.791504,741.623230 
	C654.433777,742.529236 673.832642,741.181335 693.226135,737.921570 
	C708.573425,735.341980 724.077393,733.607483 739.560364,731.952759 
	C749.935364,730.843994 760.408813,730.689636 770.813538,729.815063 
	C780.070435,729.036926 789.271240,727.384949 798.535950,726.948975 
	C818.307800,726.018860 838.113647,725.827148 857.889465,724.962952 
	C882.142334,723.903198 906.390564,722.653992 930.618042,721.126587 
	C947.352661,720.071594 964.027100,717.759338 980.768311,717.197083 
	C997.347595,716.640259 1013.988708,717.277344 1030.581055,717.936584 
	C1047.175659,718.595825 1063.744995,719.906555 1080.322388,720.979492 
	C1089.111572,721.548401 1097.885742,722.517273 1106.682129,722.773010 
	C1119.795044,723.154358 1132.922852,723.004211 1146.042236,723.210327 
	C1150.343018,723.277832 1155.004395,722.824158 1158.817383,724.334351 
	C1161.800171,725.515625 1164.600342,727.415283 1166.734009,724.785217 
	C1168.440308,722.682068 1169.341064,719.113037 1169.034912,716.369202 
	C1168.497559,711.554077 1166.077759,706.930786 1165.669189,702.123230 
	C1164.769287,691.533813 1164.765381,680.871704 1164.134888,670.254700 
	C1163.722046,663.306580 1162.284546,656.384827 1162.294434,649.452637 
	C1162.322876,629.521973 1163.103027,609.592163 1163.102173,589.661987 
	C1163.101685,575.566467 1162.447998,561.464905 1161.824463,547.377625 
	C1161.398804,537.758606 1160.533936,528.158813 1159.843384,518.552002 
	C1159.534180,514.251160 1159.784302,509.796539 1158.726440,505.682770 
	C1154.043213,487.471252 1154.089111,468.837036 1153.594727,450.292603 
	C1153.307251,439.513062 1155.110474,428.668976 1154.694336,417.903351 
	C1153.551636,388.347809 1151.767334,358.816559 1150.170166,329.279297 
	C1149.156982,310.539612 1148.534302,291.759674 1146.824341,273.081299 
	C1144.315918,245.678848 1140.635254,218.383347 1138.154785,190.978851 
	C1136.767944,175.656494 1136.435181,160.209991 1136.267456,144.812454 
	C1135.977905,118.232285 1136.257080,91.646385 1136.143921,65.063545 
	C1136.110596,57.255711 1135.995117,49.400410 1135.113892,41.658310 
	C1134.335327,34.816395 1131.569824,33.405979 1124.942017,34.978973 
	C1124.461060,35.093067 1123.963379,35.207710 1123.474121,35.205128 
	C1107.711792,35.121902 1091.920044,35.602009 1076.193604,34.801453 
	C1048.479858,33.390697 1020.826050,30.770760 993.109131,29.465038 
	C970.712219,28.409946 948.251953,27.988173 925.833008,28.284172 
	C894.563843,28.697023 863.310852,30.212349 832.043457,30.930342 
	C807.933899,31.483969 783.804993,31.244001 759.698853,31.887722 
	C731.102478,32.651344 702.525146,34.105648 673.931519,35.007004 
	C663.288635,35.342499 652.607422,34.569366 641.971558,34.997040 
	C625.196167,35.671581 608.436584,36.820660 591.685486,37.987209 
	C581.098999,38.724449 570.536865,39.823734 559.970276,40.828171 
	C553.689819,41.425171 547.436829,42.426971 541.145508,42.772083 
	C520.559875,43.901306 499.970428,45.051277 479.367432,45.750256 
	C451.136017,46.708031 422.894012,47.462570 394.650299,47.904594 
	C379.389893,48.143425 364.116608,47.387051 348.848907,47.375435 
	C330.075043,47.361149 311.292419,48.086231 292.528961,47.714958 
	C264.589722,47.162125 236.670242,45.531624 208.730804,45.090347 
	C176.578979,44.582535 144.413544,44.998859 112.256233,44.739933 
	C101.628777,44.654362 90.988693,43.961212 80.389359,43.110149 
	C67.132027,42.045662 53.923500,40.362404 40.662308,39.367313 
	C38.260395,39.187077 34.668423,40.361622 33.520844,42.136181 
	C32.420055,43.838390 33.653427,47.156261 34.117390,49.717674 
	C34.336903,50.929527 35.505913,51.991558 35.647549,53.191933 
	C37.106895,65.560036 39.167461,77.914902 39.642136,90.327690 
	C40.320522,108.067459 39.812721,125.852547 39.812870,143.618286 
	C39.813030,162.214127 39.724850,180.810623 39.861485,199.405472 
	C39.913994,206.551193 40.326214,213.704376 40.845551,220.834412 
	C41.843967,234.541656 42.460323,248.315201 44.358971,261.904236 
	C45.533489,270.310486 46.313278,278.559418 46.293884,287.068329 
	C46.232845,313.847870 46.827312,340.628754 47.146671,367.409393 
	C47.597153,405.185516 47.748619,442.967804 48.549622,480.736359 
	C49.297264,515.988953 51.048290,551.220886 51.727859,586.474060 
	C52.102390,605.903198 53.447990,625.217651 55.463772,645.513428 
z"/>
<path fill="#090909" opacity="1.000000" stroke="none" 
	d="
M55.447708,645.015503 
	C53.447990,625.217651 52.102390,605.903198 51.727859,586.474060 
	C51.048290,551.220886 49.297264,515.988953 48.549622,480.736359 
	C47.748619,442.967804 47.597153,405.185516 47.146671,367.409393 
	C46.827312,340.628754 46.232845,313.847870 46.293884,287.068329 
	C46.313278,278.559418 45.533489,270.310486 44.358971,261.904236 
	C42.460323,248.315201 41.843967,234.541656 40.845551,220.834412 
	C40.326214,213.704376 39.913994,206.551193 39.861485,199.405472 
	C39.724850,180.810623 39.813030,162.214127 39.812870,143.618286 
	C39.812721,125.852547 40.320522,108.067459 39.642136,90.327690 
	C39.167461,77.914902 37.106895,65.560036 35.647549,53.191933 
	C35.505913,51.991558 34.336903,50.929527 34.117390,49.717674 
	C33.653427,47.156261 32.420055,43.838390 33.520844,42.136181 
	C34.668423,40.361622 38.260395,39.187077 40.662308,39.367313 
	C53.923500,40.362404 67.132027,42.045662 80.389359,43.110149 
	C90.988693,43.961212 101.628777,44.654362 112.256233,44.739933 
	C144.413544,44.998859 176.578979,44.582535 208.730804,45.090347 
	C236.670242,45.531624 264.589722,47.162125 292.528961,47.714958 
	C311.292419,48.086231 330.075043,47.361149 348.848907,47.375435 
	C364.116608,47.387051 379.389893,48.143425 394.650299,47.904594 
	C422.894012,47.462570 451.136017,46.708031 479.367432,45.750256 
	C499.970428,45.051277 520.559875,43.901306 541.145508,42.772083 
	C547.436829,42.426971 553.689819,41.425171 559.970276,40.828171 
	C570.536865,39.823734 581.098999,38.724449 591.685486,37.987209 
	C608.436584,36.820660 625.196167,35.671581 641.971558,34.997040 
	C652.607422,34.569366 663.288635,35.342499 673.931519,35.007004 
	C702.525146,34.105648 731.102478,32.651344 759.698853,31.887722 
	C783.804993,31.244001 807.933899,31.483969 832.043457,30.930342 
	C863.310852,30.212349 894.563843,28.697023 925.833008,28.284172 
	C948.251953,27.988173 970.712219,28.409946 993.109131,29.465038 
	C1020.826050,30.770760 1048.479858,33.390697 1076.193604,34.801453 
	C1091.920044,35.602009 1107.711792,35.121902 1123.474121,35.205128 
	C1123.963379,35.207710 1124.461060,35.093067 1124.942017,34.978973 
	C1131.569824,33.405979 1134.335327,34.816395 1135.113892,41.658310 
	C1135.995117,49.400410 1136.110596,57.255711 1136.143921,65.063545 
	C1136.257080,91.646385 1135.977905,118.232285 1136.267456,144.812454 
	C1136.435181,160.209991 1136.767944,175.656494 1138.154785,190.978851 
	C1140.635254,218.383347 1144.315918,245.678848 1146.824341,273.081299 
	C1148.534302,291.759674 1149.156982,310.539612 1150.170166,329.279297 
	C1151.767334,358.816559 1153.551636,388.347809 1154.694336,417.903351 
	C1155.110474,428.668976 1153.307251,439.513062 1153.594727,450.292603 
	C1154.089111,468.837036 1154.043213,487.471252 1158.726440,505.682770 
	C1159.784302,509.796539 1159.534180,514.251160 1159.843384,518.552002 
	C1160.533936,528.158813 1161.398804,537.758606 1161.824463,547.377625 
	C1162.447998,561.464905 1163.101685,575.566467 1163.102173,589.661987 
	C1163.103027,609.592163 1162.322876,629.521973 1162.294434,649.452637 
	C1162.284546,656.384827 1163.722046,663.306580 1164.134888,670.254700 
	C1164.765381,680.871704 1164.769287,691.533813 1165.669189,702.123230 
	C1166.077759,706.930786 1168.497559,711.554077 1169.034912,716.369202 
	C1169.341064,719.113037 1168.440308,722.682068 1166.734009,724.785217 
	C1164.600342,727.415283 1161.800171,725.515625 1158.817383,724.334351 
	C1155.004395,722.824158 1150.343018,723.277832 1146.042236,723.210327 
	C1132.922852,723.004211 1119.795044,723.154358 1106.682129,722.773010 
	C1097.885742,722.517273 1089.111572,721.548401 1080.322388,720.979492 
	C1063.744995,719.906555 1047.175659,718.595825 1030.581055,717.936584 
	C1013.988708,717.277344 997.347595,716.640259 980.768311,717.197083 
	C964.027100,717.759338 947.352661,720.071594 930.618042,721.126587 
	C906.390564,722.653992 882.142334,723.903198 857.889465,724.962952 
	C838.113647,725.827148 818.307800,726.018860 798.535950,726.948975 
	C789.271240,727.384949 780.070435,729.036926 770.813538,729.815063 
	C760.408813,730.689636 749.935364,730.843994 739.560364,731.952759 
	C724.077393,733.607483 708.573425,735.341980 693.226135,737.921570 
	C673.832642,741.181335 654.433777,742.529236 634.791504,741.623230 
	C620.198425,740.950073 605.565002,741.193115 590.964355,740.638916 
	C564.714233,739.642517 538.484314,737.980957 512.227844,737.340942 
	C498.627502,737.009521 484.992432,738.455139 471.365540,738.761963 
	C457.750183,739.068420 444.124756,738.899353 430.504822,739.040527 
	C412.223724,739.229919 393.944183,739.613586 375.662872,739.714417 
	C368.358978,739.754700 361.049469,738.996765 353.747162,739.069885 
	C338.782623,739.219604 323.821198,739.683838 308.858551,740.021362 
	C279.456879,740.684570 250.058014,741.612671 220.652618,741.921997 
	C200.897690,742.129883 181.123367,741.752014 161.378036,741.058289 
	C152.292679,740.739136 143.262512,738.210571 134.195831,738.139038 
	C118.107391,738.011902 102.003914,738.856384 85.919983,739.586487 
	C80.161003,739.847900 74.455322,741.135864 68.696877,741.609802 
	C65.003479,741.913757 62.641884,739.555603 62.191097,736.105957 
	C60.989510,726.910706 60.045567,717.678528 59.170692,708.444702 
	C57.734402,693.285461 56.259880,678.125854 55.164364,662.940247 
	C54.747978,657.168518 55.334400,651.324524 55.447708,645.015503 
M560.485413,733.802551 
	C571.224548,734.345154 581.960938,734.955750 592.704163,735.399963 
	C597.671448,735.605408 602.652588,735.536987 607.626831,735.503906 
	C621.083252,735.414490 634.540955,735.368347 647.994873,735.123108 
	C655.405212,734.988037 662.863098,734.929138 670.200928,734.030579 
	C678.204712,733.050354 686.056641,730.879028 694.046387,729.720520 
	C699.772461,728.890137 705.639465,729.083313 711.403137,728.451294 
	C727.554443,726.680115 743.650024,724.298523 759.833801,722.956177 
	C774.234253,721.761780 788.721497,721.588196 803.173645,721.049927 
	C818.768799,720.469055 834.366333,719.937439 849.965515,719.477905 
	C864.908813,719.037537 879.887634,719.204956 894.793091,718.225769 
	C915.290039,716.879150 935.712952,714.427490 956.204956,712.976807 
	C971.427368,711.899170 986.705750,711.328491 1001.965759,711.171936 
	C1011.077209,711.078430 1020.195068,712.351624 1029.320801,712.781555 
	C1058.854126,714.173157 1088.382812,715.800903 1117.933105,716.628052 
	C1130.923950,716.991638 1143.962524,715.641968 1157.086914,715.065491 
	C1156.265137,711.828796 1155.123047,709.318848 1155.080933,706.790588 
	C1154.957031,699.327515 1155.287109,691.857544 1155.406006,684.389709 
	C1155.662842,668.270996 1156.079590,652.152039 1156.078369,636.033142 
	C1156.077637,625.565063 1155.179321,615.097046 1155.174805,604.628845 
	C1155.167847,588.386475 1156.450073,572.099426 1155.619995,555.911621 
	C1154.217285,528.557068 1151.338135,501.281616 1149.563477,473.941528 
	C1148.293091,454.371368 1147.585693,434.755920 1147.069458,415.149048 
	C1146.776611,404.030182 1147.798462,392.875092 1147.463379,381.759399 
	C1147.063599,368.495819 1145.803833,355.259430 1145.005371,342.005890 
	C1144.745239,337.688965 1144.959106,333.340057 1144.622803,329.031769 
	C1142.463867,301.386932 1140.345459,273.737732 1137.940552,246.113754 
	C1136.500977,229.577209 1135.526855,212.910492 1132.588501,196.618774 
	C1129.528198,179.650055 1128.466919,162.732040 1129.044189,145.634857 
	C1129.335571,137.006210 1130.734131,128.408890 1130.901367,119.783241 
	C1131.366455,95.800026 1128.643433,72.062378 1124.810669,48.417835 
	C1124.072510,43.864517 1122.252808,42.658302 1117.648926,42.702675 
	C1104.032837,42.833900 1090.366943,42.878536 1076.798950,41.885040 
	C1048.310547,39.799015 1019.890808,36.777634 991.403503,34.673710 
	C981.336304,33.930199 971.153870,34.859741 961.025024,34.812000 
	C947.435486,34.747955 933.843384,34.189575 920.258789,34.358620 
	C897.136047,34.646358 874.019775,35.424267 850.897949,35.834221 
	C820.766663,36.368446 790.626892,36.514202 760.501648,37.265495 
	C738.417603,37.816250 716.352905,39.803066 694.276306,39.859352 
	C650.678955,39.970509 607.241516,41.855427 563.829285,46.150162 
	C535.905640,48.912621 507.771759,49.638927 479.716797,50.950794 
	C464.762085,51.650082 449.773102,51.587990 434.802734,51.988422 
	C413.684875,52.553280 392.573425,53.482479 371.452606,53.771633 
	C356.004425,53.983120 340.546112,53.347168 325.091248,53.226734 
	C318.621979,53.176323 312.137634,53.811768 305.681366,53.569664 
	C277.108063,52.498173 248.550003,50.969395 219.971268,50.112766 
	C202.826843,49.598873 185.654236,49.960861 168.494690,50.030857 
	C136.510422,50.161324 104.526497,50.374996 72.542320,50.533569 
	C64.263420,50.574615 55.984138,50.539742 47.539669,50.539742 
	C47.539669,54.688354 47.543518,57.824448 47.539066,60.960533 
	C47.498531,89.532143 47.473820,118.103798 47.408680,146.675354 
	C47.367874,164.573715 47.679283,182.486267 47.060001,200.365692 
	C46.564739,214.664536 46.587410,228.829498 48.459122,243.058685 
	C50.663048,259.813446 52.958660,276.636780 53.611156,293.492462 
	C54.272648,310.580475 52.577705,327.745178 52.617214,344.874664 
	C52.721573,390.123718 53.013729,435.374481 53.620998,480.619324 
	C53.924252,503.213531 54.759109,525.812866 55.926708,548.380188 
	C57.626442,581.232422 59.799995,614.060547 61.873829,646.892517 
	C62.333344,654.167236 62.987759,661.446411 63.966656,668.667419 
	C65.279305,678.350464 67.493080,687.932190 68.401840,697.643372 
	C69.368355,707.971863 69.262444,718.400757 69.609962,728.360291 
	C86.627335,729.290344 102.874786,730.227661 119.128136,731.048096 
	C129.069855,731.549988 139.043457,731.585083 148.959641,732.372437 
	C156.034363,732.934204 163.024399,735.189697 170.074997,735.305603 
	C188.336838,735.605896 206.610992,735.090576 224.880722,734.998108 
	C238.826721,734.927490 252.777100,735.200500 266.718445,734.940979 
	C274.490326,734.796265 282.245026,733.834900 290.012665,733.319275 
	C295.131531,732.979431 300.258942,732.575073 305.383759,732.557129 
	C315.859009,732.520447 326.337036,732.904968 336.810333,732.789368 
	C354.229492,732.597107 371.644531,732.039001 389.063629,731.829590 
	C423.114655,731.420044 457.170715,730.705933 491.218109,730.968201 
	C513.978455,731.143555 536.727539,732.786377 560.485413,733.802551 
z"/>
<path fill="#FAFAFA" opacity="1.000000" stroke="none" 
	d="
M559.983521,733.787598 
	C536.727539,732.786377 513.978455,731.143555 491.218109,730.968201 
	C457.170715,730.705933 423.114655,731.420044 389.063629,731.829590 
	C371.644531,732.039001 354.229492,732.597107 336.810333,732.789368 
	C326.337036,732.904968 315.859009,732.520447 305.383759,732.557129 
	C300.258942,732.575073 295.131531,732.979431 290.012665,733.319275 
	C282.245026,733.834900 274.490326,734.796265 266.718445,734.940979 
	C252.777100,735.200500 238.826721,734.927490 224.880722,734.998108 
	C206.610992,735.090576 188.336838,735.605896 170.074997,735.305603 
	C163.024399,735.189697 156.034363,732.934204 148.959641,732.372437 
	C139.043457,731.585083 129.069855,731.549988 119.128136,731.048096 
	C102.874786,730.227661 86.627335,729.290344 69.609962,728.360291 
	C69.262444,718.400757 69.368355,707.971863 68.401840,697.643372 
	C67.493080,687.932190 65.279305,678.350464 63.966656,668.667419 
	C62.987759,661.446411 62.333344,654.167236 61.873829,646.892517 
	C59.799995,614.060547 57.626442,581.232422 55.926708,548.380188 
	C54.759109,525.812866 53.924252,503.213531 53.620998,480.619324 
	C53.013729,435.374481 52.721573,390.123718 52.617214,344.874664 
	C52.577705,327.745178 54.272648,310.580475 53.611156,293.492462 
	C52.958660,276.636780 50.663048,259.813446 48.459122,243.058685 
	C46.587410,228.829498 46.564739,214.664536 47.060001,200.365692 
	C47.679283,182.486267 47.367874,164.573715 47.408680,146.675354 
	C47.473820,118.103798 47.498531,89.532143 47.539066,60.960533 
	C47.543518,57.824448 47.539669,54.688354 47.539669,50.539742 
	C55.984138,50.539742 64.263420,50.574615 72.542320,50.533569 
	C104.526497,50.374996 136.510422,50.161324 168.494690,50.030857 
	C185.654236,49.960861 202.826843,49.598873 219.971268,50.112766 
	C248.550003,50.969395 277.108063,52.498173 305.681366,53.569664 
	C312.137634,53.811768 318.621979,53.176323 325.091248,53.226734 
	C340.546112,53.347168 356.004425,53.983120 371.452606,53.771633 
	C392.573425,53.482479 413.684875,52.553280 434.802734,51.988422 
	C449.773102,51.587990 464.762085,51.650082 479.716797,50.950794 
	C507.771759,49.638927 535.905640,48.912621 563.829285,46.150162 
	C607.241516,41.855427 650.678955,39.970509 694.276306,39.859352 
	C716.352905,39.803066 738.417603,37.816250 760.501648,37.265495 
	C790.626892,36.514202 820.766663,36.368446 850.897949,35.834221 
	C874.019775,35.424267 897.136047,34.646358 920.258789,34.358620 
	C933.843384,34.189575 947.435486,34.747955 961.025024,34.812000 
	C971.153870,34.859741 981.336304,33.930199 991.403503,34.673710 
	C1019.890808,36.777634 1048.310547,39.799015 1076.798950,41.885040 
	C1090.366943,42.878536 1104.032837,42.833900 1117.648926,42.702675 
	C1122.252808,42.658302 1124.072510,43.864517 1124.810669,48.417835 
	C1128.643433,72.062378 1131.366455,95.800026 1130.901367,119.783241 
	C1130.734131,128.408890 1129.335571,137.006210 1129.044189,145.634857 
	C1128.466919,162.732040 1129.528198,179.650055 1132.588501,196.618774 
	C1135.526855,212.910492 1136.500977,229.577209 1137.940552,246.113754 
	C1140.345459,273.737732 1142.463867,301.386932 1144.622803,329.031769 
	C1144.959106,333.340057 1144.745239,337.688965 1145.005371,342.005890 
	C1145.803833,355.259430 1147.063599,368.495819 1147.463379,381.759399 
	C1147.798462,392.875092 1146.776611,404.030182 1147.069458,415.149048 
	C1147.585693,434.755920 1148.293091,454.371368 1149.563477,473.941528 
	C1151.338135,501.281616 1154.217285,528.557068 1155.619995,555.911621 
	C1156.450073,572.099426 1155.167847,588.386475 1155.174805,604.628845 
	C1155.179321,615.097046 1156.077637,625.565063 1156.078369,636.033142 
	C1156.079590,652.152039 1155.662842,668.270996 1155.406006,684.389709 
	C1155.287109,691.857544 1154.957031,699.327515 1155.080933,706.790588 
	C1155.123047,709.318848 1156.265137,711.828796 1157.086914,715.065491 
	C1143.962524,715.641968 1130.923950,716.991638 1117.933105,716.628052 
	C1088.382812,715.800903 1058.854126,714.173157 1029.320801,712.781555 
	C1020.195068,712.351624 1011.077209,711.078430 1001.965759,711.171936 
	C986.705750,711.328491 971.427368,711.899170 956.204956,712.976807 
	C935.712952,714.427490 915.290039,716.879150 894.793091,718.225769 
	C879.887634,719.204956 864.908813,719.037537 849.965515,719.477905 
	C834.366333,719.937439 818.768799,720.469055 803.173645,721.049927 
	C788.721497,721.588196 774.234253,721.761780 759.833801,722.956177 
	C743.650024,724.298523 727.554443,726.680115 711.403137,728.451294 
	C705.639465,729.083313 699.772461,728.890137 694.046387,729.720520 
	C686.056641,730.879028 678.204712,733.050354 670.200928,734.030579 
	C662.863098,734.929138 655.405212,734.988037 647.994873,735.123108 
	C634.540955,735.368347 621.083252,735.414490 607.626831,735.503906 
	C602.652588,735.536987 597.671448,735.605408 592.704163,735.399963 
	C581.960938,734.955750 571.224548,734.345154 559.983521,733.787598 
z"/>
</svg>