<?xml version="1.0" encoding="UTF-8"?>
<svg version="1.1" xmlns="http://www.w3.org/2000/svg" width="635" height="895">
<path d="M0 0 C209.55 0 419.1 0 635 0 C635 295.35 635 590.7 635 895 C425.45 895 215.9 895 0 895 C0 599.65 0 304.3 0 0 Z " fill="#F9F9F9" transform="translate(0,0)"/>
<path d="M0 0 C209.55 0 419.1 0 635 0 C635 295.35 635 590.7 635 895 C425.45 895 215.9 895 0 895 C0 599.65 0 304.3 0 0 Z M482.87402344 24.37036133 C472.04507456 26.13037262 461.32857419 27.40867107 450.375 28.0625 C449.03433852 28.14634016 447.69368104 28.23024442 446.35302734 28.31420898 C435.9659793 28.94918152 425.57607912 29.3692779 415.17333984 29.65844727 C410.65953876 29.79064923 406.20804439 29.92368529 401.73046875 30.52734375 C395.50294709 31.29241111 389.22275455 31.07088858 382.96017456 31.01776123 C370.7801984 30.92257322 358.61223343 30.97813263 346.4375 31.375 C345.32270264 31.4059375 344.20790527 31.436875 343.05932617 31.46875 C338.31520745 31.64312606 333.7999383 31.94846691 329.16015625 32.9765625 C315.23203685 36.01519818 300.25176935 35.26509076 286.05102539 35.47680664 C276.07775487 35.63158186 266.2924687 36.07705878 256.39035034 37.29925537 C249.35742164 38.14206422 242.3938792 38.26270749 235.3125 38.1875 C234.11689453 38.18685547 232.92128906 38.18621094 231.68945312 38.18554688 C226.01445567 38.15715612 220.61148866 37.90268845 215 37 C202.69377502 35.94952205 190.28615914 35.88217163 177.94158936 35.82376099 C176.49564614 35.81633133 175.04971531 35.80571881 173.6038208 35.79171753 C171.543056 35.77358509 169.4827112 35.76968864 167.421875 35.76953125 C166.23174805 35.76542236 165.04162109 35.76131348 163.81542969 35.75708008 C160.81976664 35.94780728 158.42373198 36.32822289 155.54296875 37.0065918 C149.11486989 38.36820375 142.6913956 38.22453311 136.155159 38.15032959 C133.82734006 38.12429214 131.49975573 38.11163793 129.17181396 38.10205078 C123.37463339 38.07559499 117.57766946 38.02796499 111.78063965 37.97924805 C87.08553248 37.77504442 62.54409547 37.84112495 38 41 C37.98969254 41.9343689 37.97938507 42.86873779 37.96876526 43.8314209 C37.87079476 52.65867635 37.76803961 61.48586501 37.66066074 70.31301117 C37.60561512 74.85057775 37.55222568 79.38815096 37.50268555 83.92578125 C37.45476967 88.30895762 37.40241926 92.69206109 37.34705925 97.07514954 C37.32675835 98.7431709 37.30802605 100.41121216 37.29092598 102.07926941 C37.26660799 104.42466373 37.23659435 106.76992382 37.20532227 109.11523438 C37.1995668 109.7971283 37.19381134 110.47902222 37.18788147 111.18157959 C37.12811315 115.15322134 36.75823633 118.99868946 36.22766018 122.93222809 C35.81653478 126.6663618 35.82987626 130.40300066 35.81054688 134.15625 C35.80225357 135.03570282 35.79396027 135.91515564 35.78541565 136.82125854 C35.76810303 138.72105173 35.75291282 140.62086522 35.73963928 142.52069092 C35.71838246 145.55242018 35.6913691 148.58405244 35.66296387 151.61572266 C35.60349199 158.07710928 35.55142284 164.53854508 35.5 171 C35.43203627 179.45838089 35.36061469 187.91671779 35.28125 196.375 C35.27171862 197.40080799 35.26218723 198.42661598 35.25236702 199.48350906 C35.14058053 211.05632994 34.94937613 222.60367751 34.36192322 234.16366577 C33.92142273 243.34835162 33.84188945 252.53312203 33.75390625 261.7265625 C33.7455563 262.56892204 33.73720634 263.41128159 33.72860336 264.27916718 C33.65133531 272.13428173 33.58175299 279.9894499 33.52319336 287.84472656 C33.30658076 316.21311755 32.42669046 344.49297007 30.18249512 372.78019714 C28.8570285 389.52362416 28.58514796 406.26738435 28.34155273 423.05615234 C28.3253186 424.07925003 28.30908447 425.10234772 28.2923584 426.15644836 C28.26220341 428.09387636 28.23612468 430.03137341 28.21472168 431.96891785 C28.20114624 432.83712662 28.1875708 433.70533539 28.17358398 434.59985352 C28.15931618 435.7343972 28.15931618 435.7343972 28.14476013 436.89186096 C28 439 28 439 27.51919556 440.88717651 C26.83738432 443.66175111 26.69636842 446.35338183 26.51928711 449.20532227 C26.43930481 450.48215881 26.35932251 451.75899536 26.2769165 453.07452393 C26.19320259 454.48845383 26.11002989 455.90241587 26.02734375 457.31640625 C25.98402672 458.0444622 25.94070969 458.77251816 25.89608002 459.52263641 C25.55971169 465.20168978 25.24385736 470.88175388 24.9375 476.5625 C24.89152805 477.41457912 24.84555611 478.26665825 24.79819107 479.14455795 C22.74467623 517.58005977 22.55815775 555.91534842 22.92309093 594.39405918 C22.98937363 601.48806493 23.03938875 608.58209354 23.08349609 615.67626953 C23.15844137 627.68069441 23.24916296 639.68493398 23.34921646 651.68917465 C23.3747031 654.83831501 23.39783176 657.98746543 23.42050171 661.1366272 C23.45724431 666.11473011 23.50394925 671.0926537 23.55774879 676.07060051 C23.57608044 677.88927329 23.59146759 679.70797896 23.60342979 681.52670479 C23.67449662 691.93745844 24.20911137 702.17048567 25.2814312 712.52759266 C26.02931509 719.8601058 26.31059299 727.13244964 26.34375 734.50390625 C26.36483769 736.45356452 26.38594 738.4032227 26.40767956 740.3528738 C26.42901732 742.37699819 26.4464964 744.40112417 26.46304321 746.42529297 C26.52302614 753.50393423 26.62682266 760.58204185 26.73046875 767.66015625 C26.74064215 768.36354252 26.75081554 769.06692879 26.76129723 769.79162979 C27.08948732 811.16090942 27.08948732 811.16090942 33 852 C33.18820313 852.85803223 33.37640625 853.71606445 33.5703125 854.60009766 C34.04142285 856.73460909 34.51991706 858.86748871 35 861 C41.16670102 862.01017055 47.31503013 862.37873596 53.55078125 862.71875 C55.79752987 862.84758958 58.04427454 862.97649783 60.29101562 863.10546875 C63.81771097 863.30434348 67.34448031 863.50177705 70.87133789 863.69775391 C74.28554083 863.88854969 77.69940994 864.08462302 81.11328125 864.28125 C82.17468826 864.338573 83.23609528 864.395896 84.32966614 864.45495605 C85.30795883 864.51171509 86.28625153 864.56847412 87.29418945 864.62695312 C88.15687943 864.67501099 89.0195694 864.72306885 89.90840149 864.77258301 C92 865 92 865 94 866 C95.37903115 866.15575887 96.7644608 866.25684179 98.15039062 866.32885742 C99.01571411 866.37527878 99.8810376 866.42170013 100.77258301 866.4695282 C101.72419312 866.51438858 102.67580322 866.55924896 103.65625 866.60546875 C104.66361206 866.65318924 105.67097412 866.70090973 106.7088623 866.75007629 C108.87446493 866.84948192 111.04020379 866.94595417 113.20605469 867.03979492 C115.33080498 867.13507167 117.45521996 867.23832085 119.57910156 867.35131836 C134.01719507 868.11893366 148.19327086 867.88279791 162.609375 867.0703125 C190.13625836 865.53481279 217.68279804 865.66080271 245.24246979 865.68632215 C251.08316916 865.6903298 256.92371654 865.67549761 262.76438117 865.6567561 C268.49449993 865.63906681 274.22455189 865.63314735 279.95469689 865.63639385 C283.33603808 865.6381837 286.71710589 865.6344275 290.09844208 865.62167931 C303.19673455 865.57820322 315.28891913 865.6454264 328 869 C330.64749794 869.37087374 333.16602882 869.49326242 335.84765625 869.58203125 C336.50398544 869.60558685 337.16031464 869.62914246 337.83653259 869.65341187 C339.91175854 869.72181023 341.98661122 869.7691568 344.0625 869.8125 C344.77801025 869.83124176 345.49352051 869.84998352 346.23071289 869.86929321 C370.16134303 870.94991684 370.16134303 870.94991684 393 865 C394.96062144 864.85770275 396.92561583 864.77373984 398.890625 864.71875 C400.07527344 864.68136719 401.25992187 864.64398437 402.48046875 864.60546875 C403.72441406 864.57066406 404.96835937 864.53585937 406.25 864.5 C408.6928162 864.43079115 411.13553393 864.35799446 413.578125 864.28125 C414.66512695 864.25095703 415.75212891 864.22066406 416.87207031 864.18945312 C419.97796337 864.00133472 422.93971209 863.54924806 426 863 C448.87455692 860.85271434 472.0566438 860.89722451 495.01345825 860.82376099 C497.14016084 860.81636149 499.26685518 860.80577737 501.39352417 860.79171753 C512.42586655 860.72546738 523.22788989 860.95879036 534.18598938 862.28005981 C541.711448 863.16085382 549.1699817 863.27110579 556.73999023 863.20581055 C558.99018241 863.18706103 561.2399707 863.18530535 563.49023438 863.18554688 C571.31985937 863.26975973 571.31985937 863.26975973 579 862 C580.87756738 861.85492152 582.75876493 861.75366301 584.640625 861.68359375 C585.71054687 861.64169922 586.78046875 861.59980469 587.8828125 861.55664062 C588.99398437 861.51732422 590.10515625 861.47800781 591.25 861.4375 C592.93996094 861.37272461 592.93996094 861.37272461 594.6640625 861.30664062 C597.44258954 861.20067985 600.22120391 861.09860858 603 861 C604.23025917 858.53948167 604.12581401 856.93718842 604.12698364 854.18515015 C604.12980347 853.16634262 604.13262329 852.1475351 604.13552856 851.09785461 C604.13350433 849.97421005 604.1314801 848.85056549 604.12939453 847.69287109 C604.13114685 846.51147049 604.13289917 845.33006989 604.13470459 844.11286926 C604.13836796 840.85159072 604.13748026 837.59035237 604.1343255 834.32907438 C604.13177916 830.86949808 604.1341482 827.40992432 604.13571167 823.9503479 C604.13753792 818.09059171 604.13512681 812.23084804 604.13037109 806.37109375 C604.12562382 800.45604622 604.12546561 794.54102397 604.13037109 788.62597656 C604.15340817 760.07333885 604.15180665 731.52442995 603.5546875 702.9765625 C603.53527225 702.02345562 603.51585701 701.07034874 603.49585342 700.08835983 C603.26495855 689.12591396 602.8532588 678.18808309 602.22328186 667.24124146 C601.87180124 660.95775622 601.7522664 654.66767466 601.61102295 648.37661743 C601.29518737 634.53447765 600.65309122 620.75247401 599.57250977 606.94824219 C599.48412842 605.75489258 599.39574707 604.56154297 599.3046875 603.33203125 C599.22202637 602.29796143 599.13936523 601.2638916 599.05419922 600.19848633 C599.00122778 597.07245579 599.32762213 594.12713341 599.75778198 591.03468323 C600.1434626 587.79488344 600.12994736 584.57632152 600.1328125 581.31640625 C600.13376923 580.61660141 600.13472595 579.91679657 600.13571167 579.19578552 C600.13638676 577.72777211 600.13457974 576.25975559 600.13037109 574.79174805 C600.1250214 572.57138209 600.13033488 570.35121911 600.13671875 568.13085938 C600.13605769 566.6927079 600.13477596 565.25455654 600.1328125 563.81640625 C600.13168457 562.53193604 600.13055664 561.24746582 600.12939453 559.92407227 C600.03764366 557.14159711 599.8483549 554.56371035 599.49801636 551.82029724 C598.96874303 547.17930106 598.87165739 542.61810033 598.90234375 537.95117188 C598.90380402 537.09624649 598.90526428 536.24132111 598.9067688 535.36048889 C598.91054802 533.52067986 598.91663575 531.68087436 598.92483521 529.84107971 C598.93770326 526.92265087 598.94414092 524.00426798 598.94897461 521.08581543 C598.96228089 513.84065368 598.98650774 506.59553606 599.01037598 499.35040283 C599.03016349 493.21615338 599.04577883 487.08192027 599.05593872 480.94764709 C599.06238021 478.08449328 599.0748863 475.22140795 599.08764648 472.35827637 C599.09128193 470.58846088 599.09463329 468.81864477 599.09765625 467.04882812 C599.10282257 466.26310928 599.10798889 465.47739044 599.11331177 464.66786194 C599.11374856 460.03186245 598.80479678 455.52337457 598.22828674 450.92261505 C597.95092386 448.58668417 597.86693287 446.28906934 597.875 443.9375 C597.87242187 443.18339844 597.86984375 442.42929687 597.8671875 441.65234375 C598 439 598 439 598.5 435.625 C599.34630358 429.13843884 599.14869241 422.59157483 599.125 416.0625 C599.12367065 415.00894821 599.12367065 415.00894821 599.12231445 413.93411255 C599.10679804 403.40070681 598.83994849 392.8967543 598.36035156 382.37329102 C597.621155 366.13120006 597.621155 366.13120006 598 359 C598.33 358.67 598.66 358.34 599 358 C600.21386196 347.93373921 600.14892236 337.76714443 600.1328125 327.64453125 C600.1334882 326.12473027 600.13446044 324.6049294 600.13571167 323.08512878 C600.13717118 319.93296254 600.13508776 316.78082498 600.13037109 313.62866211 C600.12462045 309.58924285 600.12799714 305.54988927 600.13394356 301.5104723 C600.13755075 298.38699341 600.13641079 295.26353023 600.13381577 292.14005089 C600.13314972 290.64929891 600.13396365 289.15854549 600.13629532 287.66779518 C600.13883027 285.59595544 600.13497181 283.52422421 600.12939453 281.45239258 C600.12859894 280.27550369 600.12780334 279.09861481 600.12698364 277.88606262 C600.12908896 274.9302312 600.12908896 274.9302312 599 272 C596.18792811 256.03852552 595.53580221 240.07556666 595.48828125 223.91015625 C595.47132954 221.66612338 595.45316652 219.42209938 595.43388367 217.17808533 C595.3869133 211.32018936 595.35683771 205.4623289 595.33044434 199.60430908 C595.30090159 193.77323373 595.25392055 187.94230132 595.20898438 182.11132812 C595.06014678 161.9822886 594.97419131 141.85267036 594.95216942 121.72308159 C594.95024741 120.02310529 594.9476385 118.32312958 594.94423866 116.62315559 C594.92168627 103.79096799 595.26388716 91.00228771 595.7734375 78.1796875 C596.27331742 65.26546676 596.03822326 52.4124884 595.5625 39.5 C595.50376709 37.8588623 595.50376709 37.8588623 595.44384766 36.18457031 C595.40179199 35.16459961 595.35973633 34.14462891 595.31640625 33.09375 C595.26141968 31.72766602 595.26141968 31.72766602 595.20532227 30.33398438 C595.07730058 27.84544186 595.07730058 27.84544186 594 25 C581.05999392 16.37332928 554.12368151 19.70106005 538.75 19.625 C537.3690062 19.61765839 537.3690062 19.61765839 535.96011353 19.61016846 C517.98274829 19.57114309 500.5927075 21.48907474 482.87402344 24.37036133 Z " fill="#F5F5F5" transform="translate(0,0)"/>
<path d="M0 0 C209.55 0 419.1 0 635 0 C635 289.41 635 578.82 635 877 C628.85368029 867.78052043 630.61414255 852.34094275 630.34155273 841.68774414 C630.31005127 840.51074951 630.2785498 839.33375488 630.24609375 838.12109375 C630.22216553 837.0633374 630.1982373 836.00558105 630.17358398 834.91577148 C630.07579834 832.0718413 630.07579834 832.0718413 629.50099182 829.6197052 C629.01469132 827.07682147 628.85030786 824.75385711 628.81054688 822.16894531 C628.79382935 821.2373761 628.77711182 820.30580688 628.7598877 819.3460083 C628.73952454 817.85215607 628.73952454 817.85215607 628.71875 816.328125 C628.70034058 815.29113464 628.68193115 814.25414429 628.66296387 813.18572998 C628.60434258 809.87387645 628.55150886 806.5619713 628.5 803.25 C628.4319267 798.90094319 628.35817118 794.55203325 628.28125 790.203125 C628.26088684 788.72141815 628.26088684 788.72141815 628.2401123 787.20977783 C628.15066688 782.15805114 627.84251839 777.23399687 627.22836304 772.22079468 C626.81279074 768.17941938 626.80894809 764.13345391 626.75390625 760.07421875 C626.43601661 738.65818406 625.98192369 717.25724086 625.19218254 695.85313988 C623.82545818 658.29132673 623.17657287 620.71705539 622.53128433 583.13721848 C622.43606187 577.59358548 622.33925572 572.04998072 622.24227905 566.50637817 C621.85255379 544.19842393 621.47523057 521.89028266 621.10857588 499.58193773 C621.03221482 494.94010515 620.9547819 490.29829219 620.87634277 485.65649414 C619.95479789 431.09319366 619.95561992 376.53684754 620.00942993 321.96749878 C620.0462198 284.47452706 620.01222146 246.99037051 619.5 209.5 C619.00020063 172.6875078 618.88542407 135.8784869 618.87716937 99.06312716 C618.87589168 93.74536995 618.87215924 88.42761843 618.86743164 83.10986328 C618.86130463 75.94993816 618.86133294 68.79003203 618.86568069 61.63010597 C618.86715216 58.96918441 618.8660911 56.30830028 618.86384201 53.64737511 C618.86129244 49.97868096 618.86509313 46.31004711 618.87060547 42.64135742 C618.86857872 41.5723394 618.86655197 40.50332138 618.86446381 39.40190887 C618.88024939 33.8343294 619.20168234 28.50961974 620 23 C620.07105684 21.28241096 620.1089656 19.56277103 620.09765625 17.84375 C620.09443359 16.9671875 620.09121094 16.090625 620.08789062 15.1875 C620.07951172 14.300625 620.07113281 13.41375 620.0625 12.5 C620.05573242 11.12328125 620.05573242 11.12328125 620.04882812 9.71875 C620.03716326 7.47909609 620.02079614 5.23958455 620 3 C615.41310908 2.18886861 611.75214667 1.98284684 607.1875 2.875 C602.10199292 3.74996677 597.06382144 4.29302134 591.91479492 4.56640625 C591.13854609 4.60809433 590.36229727 4.64978241 589.56252575 4.69273376 C579.76934695 5.16892512 569.97766947 5.10464966 560.17578125 5.0625 C558.06139247 5.05750681 555.94700223 5.05310348 553.83261108 5.04924011 C549.33268433 5.04059634 544.83277245 5.02958461 540.33285522 5.01693726 C528.34953111 4.98542385 516.36617047 4.98755434 504.3828125 4.98828125 C503.16223585 4.98833979 501.9416592 4.98839832 500.68409538 4.98845863 C492.12272766 4.98935314 483.56136521 4.99347194 475 5 C473.83782455 5.00082329 472.67564911 5.00164658 471.47825623 5.00249481 C458.27510541 5.01319889 445.07239226 5.04459064 431.86950588 5.13209343 C426.83291779 5.1654184 421.79662255 5.19137984 416.75991821 5.19555664 C395.11243655 5.21990904 374.56598263 6.07875493 353.29995728 10.36550903 C336.36498572 13.621638 319.38252366 15.23085975 302.171875 15.59765625 C301.3768734 15.61659754 300.5818718 15.63553883 299.76277924 15.65505409 C278.79885547 16.15152391 257.83012667 16.18725373 236.86132812 16.18530273 C232.46089569 16.18522149 228.06056741 16.19218623 223.66015625 16.20581055 C192.22692967 16.30152587 160.87887688 15.8364828 129.5246582 13.43823242 C123.64756606 13.00652354 117.82430356 12.88337373 111.93359375 12.9375 C109.89550816 12.94604687 107.85742221 12.95450726 105.81933594 12.96289062 C104.77676636 12.96909424 103.73419678 12.97529785 102.66003418 12.98168945 C87.84735423 13.0658556 73.05194086 13.11964554 58.25 12.5 C48.43682611 12.09969738 38.63310113 11.83189856 28.8125 11.75 C27.55663086 11.72873047 26.30076172 11.70746094 25.00683594 11.68554688 C23.28062012 11.6787793 23.28062012 11.6787793 21.51953125 11.671875 C20.49964111 11.6625293 19.47975098 11.65318359 18.42895508 11.64355469 C17.6273999 11.76118164 16.82584473 11.87880859 16 12 C13.77196113 15.34205831 13.70979398 16.61103359 13.5859375 20.53125 C13.54686279 21.64113281 13.50778809 22.75101563 13.4675293 23.89453125 C13.43699463 25.08433594 13.40645996 26.27414063 13.375 27.5 C13.33995361 28.73105469 13.30490723 29.96210938 13.26879883 31.23046875 C13.20207393 33.70429834 13.140232 36.17826491 13.08349609 38.65234375 C13.01585423 41.36434753 12.91848143 44.07115849 12.80078125 46.78125 C12.54023717 54.69595959 13.1140822 62.29797322 14.16017151 70.15022278 C16.50340267 87.75712635 17.3979624 105.03960337 17.375 122.8125 C17.3764502 123.91223145 17.37790039 125.01196289 17.37939453 126.14501953 C17.37645636 145.79258203 17.37645636 145.79258203 15.98046875 154.05078125 C14.4957549 162.96372909 14.82209373 171.89609381 14.90679932 180.90353394 C14.96243653 187.19468733 14.97449029 193.48598332 14.98828125 199.77734375 C14.99098148 200.83667838 14.99098148 200.83667838 14.99373627 201.91741371 C15.04448917 223.26198952 14.86869958 244.60566185 14.68362427 265.94927979 C14.64381774 270.57226421 14.60866575 275.19524539 14.57785034 279.81829834 C14.2704041 325.33515916 14.2704041 325.33515916 12.67959595 341.10545349 C11.98253439 348.22610685 11.95222498 355.27160667 11.98800182 362.41798115 C12.0346533 373.47667789 11.73531106 384.52388556 11.44921875 395.578125 C11.39015969 397.92775655 11.33123374 400.27739145 11.27243042 402.62702942 C11.08230342 410.16814795 10.88544262 417.70908313 10.6875 425.25 C10.65384716 426.53792828 10.62019432 427.82585655 10.5855217 429.15281296 C6.53299936 584.11182696 6.53299936 584.11182696 1 637 C0.67 637 0.34 637 0 637 C0 426.79 0 216.58 0 0 Z " fill="#F8F8F8" transform="translate(0,0)"/>
<path d="M0 0 C1.63574219 1.30004883 1.63574219 1.30004883 3 3 C3.24715276 5.97465996 3.32674673 8.72075923 3.25 11.6875 C3.24226562 12.85442383 3.24226562 12.85442383 3.234375 14.04492188 C3.1873166 17.57136055 3.01059855 20.92766712 2.49801636 24.42593384 C1.81541479 29.84570379 1.86032182 35.2426373 1.87060547 40.69799805 C1.86887581 41.85596264 1.86714615 43.01392723 1.86536407 44.20698166 C1.86100865 48.05857517 1.8639561 51.91012467 1.8671875 55.76171875 C1.86679471 57.80214559 1.86566692 59.84257108 1.86443865 61.88299757 C1.86006936 69.18489027 1.86301364 76.48676343 1.86943495 83.78865391 C1.87412923 89.17896793 1.87648943 94.56927887 1.87768555 99.95959473 C1.88802931 139.04105001 2.05779029 178.11553059 2.53603363 217.1944313 C2.98941752 254.29975709 3.04656496 291.39858851 3.00699133 328.50589365 C2.95129499 381.39064777 3.05202847 434.25905558 3.93571472 487.13783264 C4.00684392 491.41117285 4.07702199 495.68452811 4.14709473 499.95788574 C4.51582337 522.41461986 4.89825995 544.87109868 5.29150325 567.32741672 C5.38779207 572.82882145 5.48311143 578.33024176 5.57759428 583.83167779 C6.22772997 621.65917855 6.92381956 659.47710502 8.3188324 697.28569031 C9.09806219 718.4737371 9.50428063 739.66478546 9.79174614 760.86484146 C9.84828747 764.752684 10.02486332 768.55967554 10.49780273 772.42016602 C11.13462364 777.67707423 11.20854225 782.91261103 11.28125 788.203125 C11.29965942 789.24394226 11.31806885 790.28475952 11.33703613 791.3571167 C11.41512787 795.77443975 11.48354404 800.19189738 11.55224609 804.609375 C11.604054 807.8490326 11.66123891 811.08856443 11.71875 814.328125 C11.73911316 815.82197723 11.73911316 815.82197723 11.7598877 817.3460083 C11.77660522 818.27757751 11.79332275 819.20914673 11.81054688 820.16894531 C11.82307495 820.98341125 11.83560303 821.7978772 11.84851074 822.63702393 C12.01048783 825.1635924 12.4810516 827.52458932 13 830 C13.12135185 832.03840391 13.19991181 834.07960312 13.24609375 836.12109375 C13.27767578 837.29808838 13.30925781 838.47508301 13.34179688 839.68774414 C13.37337891 840.92516357 13.40496094 842.16258301 13.4375 843.4375 C13.69598661 859.43384159 13.69598661 859.43384159 17 875 C17 880.94 17 886.88 17 893 C-192.55 893 -402.1 893 -618 893 C-618 635 -618 635 -614 583 C-613.25045768 568.99925856 -612.53889497 555.00871061 -612 541 C-611.96700806 540.15114479 -611.93401611 539.30228958 -611.90002441 538.42771149 C-611.42134412 526.07104764 -610.99424555 513.71289568 -610.59119034 501.35355377 C-610.4981248 498.50510591 -610.40398639 495.656695 -610.30966187 492.80828857 C-609.37408631 464.47980186 -608.56318516 436.14899975 -607.87759399 407.81336594 C-607.81323907 405.15552359 -607.74818991 402.49769883 -607.68310547 399.83987427 C-607.56220648 394.87510744 -607.44550412 389.91025441 -607.33203125 384.9453125 C-607.31417194 384.16994329 -607.29631264 383.39457409 -607.27791214 382.59570885 C-607.08729326 374.1831473 -606.9773862 365.78210539 -607.07421875 357.3671875 C-607.14567797 350.31659107 -606.65290814 343.40030971 -606.0390625 336.37890625 C-604.30864909 315.77021099 -604.53706505 295.05837153 -604.39931107 274.39196014 C-604.36657644 269.74056076 -604.32626058 265.08923929 -604.28592777 260.43790054 C-604.10563275 239.55117776 -603.95847653 218.66491968 -604.01171875 197.77734375 C-604.01323692 197.08476156 -604.0147551 196.39217937 -604.01631927 195.67860985 C-604.03141346 188.97677276 -604.06149054 182.27553387 -604.12451172 175.57397461 C-604.1893923 166.44588411 -603.99463069 157.81914583 -602.46948242 148.796875 C-601.3247368 139.53890107 -601.61271678 130.12727524 -601.625 120.8125 C-601.62282471 119.12882324 -601.62282471 119.12882324 -601.62060547 117.41113281 C-601.62306704 100.09647468 -602.82183034 83.29790184 -605.10546875 66.15625 C-606.15400517 58.2289442 -606.44679504 50.53985014 -606.09863281 42.56201172 C-605.97599179 39.37638071 -605.92409901 36.19137556 -605.8671875 33.00390625 C-605.80914194 30.52339351 -605.7492499 28.04292329 -605.6875 25.5625 C-605.66534424 24.38107422 -605.64318848 23.19964844 -605.62036133 21.98242188 C-605.58450928 20.87576172 -605.54865723 19.76910156 -605.51171875 18.62890625 C-605.48553467 17.63963135 -605.45935059 16.65035645 -605.43237305 15.63110352 C-604.9218993 12.52473675 -604.31900191 11.13506282 -602 9 C-599.45751953 8.5300293 -599.45751953 8.5300293 -596.3828125 8.57421875 C-594.66143066 8.58582031 -594.66143066 8.58582031 -592.90527344 8.59765625 C-591.6577832 8.62730469 -590.41029297 8.65695312 -589.125 8.6875 C-587.81563477 8.70296875 -586.50626953 8.7184375 -585.15722656 8.734375 C-575.52768842 8.85929262 -565.90665408 9.24143007 -556.28540039 9.64550781 C-545.12090347 10.06561782 -533.96916842 10.0071866 -522.79824829 9.95285034 C-505.91076296 9.87273636 -489.21324377 10.02342443 -472.37890625 11.46484375 C-446.81710981 13.45790915 -421.16621641 13.15632542 -395.546875 13.13037109 C-389.92030978 13.12471565 -384.29379224 13.12804376 -378.6672287 13.13379669 C-357.69694017 13.15214784 -336.73071617 13.10550128 -315.765625 12.6015625 C-314.63552631 12.5772434 -314.63552631 12.5772434 -313.48259735 12.55243301 C-296.13492775 12.16415384 -278.83019334 10.36853313 -261.84912109 6.71508789 C-237.56194651 1.64410142 -213.05121819 2.21016432 -188.34833527 2.19331741 C-182.04381883 2.18346711 -175.73947505 2.14430806 -169.43505859 2.10913086 C-146.6316074 1.99218907 -123.8280849 1.98660462 -101.02440262 2.01908684 C-97.96942435 2.02339251 -94.91444587 2.02694023 -91.85946655 2.03041077 C-83.42939142 2.04122364 -74.99959106 2.05706283 -66.56965446 2.10851002 C-47.64286174 2.21956208 -16.98710753 -5.09613226 0 0 Z M-254.5234375 12.27734375 C-259.91402805 13.18764383 -265.33618749 13.75212205 -270.77734375 14.265625 C-274.31586549 14.61881079 -277.68503456 15.1334321 -281.13761902 15.99478149 C-286.07979224 17.11003105 -290.89392516 17.42992075 -295.9465332 17.61083984 C-296.89818296 17.65076679 -297.84983273 17.69069374 -298.83032036 17.7318306 C-301.96601254 17.85954971 -305.10200033 17.9736642 -308.23828125 18.0859375 C-309.33047785 18.12741283 -310.42267445 18.16888817 -311.54796791 18.21162033 C-336.30670115 19.14675518 -361.06555362 19.43124409 -385.83947754 19.60089111 C-390.3640239 19.63347207 -394.88850037 19.6728346 -399.41298962 19.71247292 C-416.73515956 19.86414469 -434.05724045 20.00676374 -451.38012695 20.03442383 C-452.31351741 20.03723925 -453.24690786 20.04005466 -454.20858288 20.0429554 C-462.49981359 20.0477349 -470.73106633 19.63459011 -479 19.0625 C-480.35802897 18.97393289 -481.71610241 18.88604512 -483.07421875 18.79882812 C-488.25568853 18.46277615 -493.43619162 18.12152035 -498.61303711 17.71923828 C-509.2651958 16.92066935 -519.88365239 16.76109096 -530.5625 16.75 C-531.50623474 16.74799591 -532.44996948 16.74599182 -533.42230225 16.743927 C-547.5421943 16.73665956 -561.55286735 17.27954185 -575.625 18.4375 C-576.86058151 18.5385907 -576.86058151 18.5385907 -578.12112427 18.64172363 C-586.31660763 18.87801405 -586.31660763 18.87801405 -594 21 C-594.92206897 25.35316915 -595.20940162 29.82223286 -595.625 34.25 C-595.6907019 34.9251767 -595.75640381 35.60035339 -595.82409668 36.29598999 C-596.95004719 48.13423361 -597.27479681 59.92496934 -597.25 71.8125 C-597.24913391 72.59991577 -597.24826782 73.38733154 -597.24737549 74.1986084 C-597.22605092 81.68490081 -597.09130527 89.0844627 -596.22265625 96.52856445 C-595.73877247 101.8995683 -595.85757191 107.29931606 -595.875 112.6875 C-595.86919922 114.40549805 -595.86919922 114.40549805 -595.86328125 116.15820312 C-595.87013267 122.47863408 -596.02046979 128.76389812 -596.34146118 135.07470703 C-596.94931014 147.14655718 -597.15626428 159.20843217 -597.28125 171.29296875 C-597.29080845 172.21091154 -597.3003669 173.12885433 -597.310215 174.07461357 C-597.37868903 180.77886258 -597.43996417 187.48317092 -597.5 194.1875 C-597.88721599 237.28364164 -597.88721599 237.28364164 -598.60401917 254.68991089 C-599.06888381 266.54628288 -599.26025921 278.40629645 -599.46484375 290.26953125 C-599.48418095 291.37421942 -599.50351814 292.47890759 -599.52344131 293.61707115 C-599.70481684 303.9793964 -599.881553 314.34179475 -600.04956055 324.7043457 C-600.46790284 350.35546685 -601.06658538 375.97404791 -602.2361908 401.6026001 C-602.86924372 415.51493204 -603.37012262 429.42700934 -603.78125 443.34765625 C-603.81107468 444.35573774 -603.84089935 445.36381924 -603.87162781 446.40244865 C-604.02246776 451.5244062 -604.17093911 456.64642875 -604.31808472 461.76849365 C-604.59887483 471.52454143 -604.89417576 481.28015779 -605.18800163 491.03582001 C-605.28420195 494.23003251 -605.38022672 497.42425025 -605.47621155 500.61846924 C-605.62411592 505.53878533 -605.77239212 510.45909009 -605.92093658 515.3793869 C-605.99391134 517.79818719 -606.06663943 520.21699478 -606.13934326 522.63580322 C-606.38798035 530.88281686 -606.64932721 539.12926609 -606.9375 547.375 C-606.97309021 548.40106354 -607.00868042 549.42712708 -607.04534912 550.48428345 C-607.52062129 563.75656757 -608.31746818 576.98535129 -609.28788757 590.23027039 C-613.19393666 643.56861178 -612.34599287 696.31469256 -610.125 749.6875 C-610.05975632 751.26060125 -610.05975632 751.26060125 -609.99319458 752.86548233 C-608.80077414 783.23066012 -608.80077414 783.23066012 -606.41162109 813.51806641 C-605.82928001 819.38061836 -605.61602727 825.26037847 -605.41674805 831.14653015 C-605.2689253 835.42983627 -604.78358107 839.53172966 -604.0390625 843.75390625 C-602.89875598 850.23128029 -602.34712698 856.69440076 -601.875 863.25 C-601.78863281 864.38824219 -601.70226562 865.52648437 -601.61328125 866.69921875 C-601.40404223 869.46582357 -601.19968279 872.23269192 -601 875 C-596.26443662 876.80958856 -591.75356212 877.46440257 -586.734375 877.81640625 C-585.54597015 877.9084861 -585.54597015 877.9084861 -584.33355713 878.00242615 C-581.80618608 878.19624 -579.27816178 878.37932442 -576.75 878.5625 C-575.09890795 878.68879622 -573.44786563 878.8157442 -571.796875 878.94335938 C-564.71414713 879.48267763 -557.63407886 879.9818655 -550.53910828 880.32798767 C-536.83077883 881.00303124 -523.19342923 882.463422 -509.54125977 883.84326172 C-493.36293234 885.47078488 -477.25456594 886.55197892 -461 887 C-460.10901108 887.02564529 -459.21802216 887.05129059 -458.30003357 887.07771301 C-448.31273157 887.35363024 -438.93175719 886.69018702 -429.05859375 885.13989258 C-419.3611986 883.71474588 -409.65541438 883.52402147 -399.87207031 883.37915039 C-398.62135742 883.3558667 -397.37064453 883.33258301 -396.08203125 883.30859375 C-394.98093018 883.29626709 -393.8798291 883.28394043 -392.74536133 883.27124023 C-389.76093607 883.05510723 -387.23544161 882.63502889 -384.33886719 882.00219727 C-376.42213563 880.49999692 -368.43761399 880.6864876 -360.40844536 880.66447449 C-357.43046233 880.65606466 -354.45276878 880.63544285 -351.47486877 880.61193848 C-345.12912343 880.5639933 -338.78334768 880.53099595 -332.4375 880.5 C-324.1236013 880.45901734 -315.80982358 880.41129812 -307.49609375 880.34375 C-305.99444105 880.33167165 -305.99444105 880.33167165 -304.46245193 880.31934929 C-290.10848678 880.19064051 -275.91643223 879.62826512 -261.6232605 878.22511292 C-254.50020488 877.61385383 -247.33979121 877.42389311 -240.19628906 877.17358398 C-237.90324689 877.03099792 -237.90324689 877.03099792 -235.29145813 876.49597645 C-231.85101659 875.9775503 -228.61886339 875.88170598 -225.14038086 875.89079285 C-224.14151163 875.89140314 -224.14151163 875.89140314 -223.12246323 875.89202577 C-220.90321712 875.89471097 -218.68406766 875.90471288 -216.46484375 875.91479492 C-214.86733582 875.918394 -213.26982696 875.92159821 -211.6723175 875.92443848 C-207.33399129 875.93380108 -202.99572023 875.95014601 -198.65742493 875.96880889 C-195.93311813 875.98048753 -193.208809 875.99114349 -190.48449707 876.00155067 C-181.92222941 876.03481466 -173.3599998 876.07283278 -164.79778099 876.11691588 C-154.99016966 876.16728716 -145.18267751 876.20175724 -135.37495899 876.22209662 C-127.75226687 876.23895885 -120.12972597 876.27106519 -112.50713634 876.31394273 C-107.97679648 876.33908361 -103.44664245 876.35831844 -98.91622925 876.36131859 C-79.49905151 876.37955597 -60.70533365 877.03869922 -41.50097656 880.08052063 C-32.96343289 881.39890473 -24.40513722 881.63334915 -15.78125 881.82421875 C-13.11109526 881.89076941 -10.73009725 882.04824874 -8.09375 882.51953125 C-3.0877013 883.29698578 1.94402932 883.07363064 7 883 C7.02485652 877.04093728 7.04293377 871.08190525 7.05493164 865.12280273 C7.05993738 863.09870884 7.06674396 861.07461852 7.07543945 859.05053711 C7.08767059 856.12873448 7.09326605 853.20697996 7.09765625 850.28515625 C7.10281754 849.39103531 7.10797882 848.49691437 7.11329651 847.57569885 C7.11337204 846.7154863 7.11344757 845.85527374 7.11352539 844.96899414 C7.11685631 843.85313683 7.11685631 843.85313683 7.12025452 842.71473694 C7.01691343 840.38181942 6.79035104 838.13298087 6.50949097 835.81716919 C5.93630363 830.85937037 5.80171732 825.94344805 5.73461914 820.95629883 C5.70989029 819.50694757 5.70989029 819.50694757 5.68466187 818.0283165 C5.64947982 815.93517888 5.61623597 813.84200796 5.58473396 811.74881172 C5.53416505 808.39121889 5.478469 805.03374416 5.42149353 801.67625427 C5.34055024 796.88083743 5.26162431 792.08539397 5.18432617 787.28991699 C4.98140054 774.75684575 4.76125605 762.22407898 4.53515625 749.69140625 C4.50184141 747.84260172 4.50184141 747.84260172 4.46785355 745.9564476 C4.12995614 727.38059292 3.67658153 708.8167724 3 690.25 C1.90640647 660.16188081 1.32998991 630.06569588 0.75617027 599.96384621 C0.6789549 595.91866124 0.60088723 591.87349328 0.52229691 587.82833481 C0.48402631 585.85846252 0.44597815 583.88858589 0.40815353 581.91870499 C0.21402965 571.89392531 0.00192727 561.87407408 -0.40963745 551.85549927 C-0.45879303 550.57416107 -0.50794861 549.29282288 -0.55859375 547.97265625 C-0.59675044 546.99822351 -0.63490713 546.02379076 -0.67422009 545.01982975 C-0.97953946 536.49631452 -1.03959535 527.9860924 -1.00815105 519.45892191 C-0.95584194 504.03635523 -1.03372998 488.61615302 -1.18359375 473.19433594 C-1.19323312 472.20127264 -1.20287249 471.20820935 -1.21280396 470.18505323 C-1.26393121 464.97189286 -1.31670353 459.75875074 -1.37039185 454.54561615 C-1.44015971 447.76328431 -1.50633931 440.98091984 -1.57202148 434.19854736 C-1.75901562 414.93717311 -1.94964877 395.67583697 -2.14550781 376.41455078 C-2.27742435 363.42075451 -2.40550869 350.42692452 -2.52910233 337.43304634 C-2.55134268 335.0948686 -2.57368894 332.75669187 -2.59614182 330.41851616 C-2.84589753 304.33290792 -3.03766562 278.24904689 -3.02734375 252.16210938 C-3.02695162 251.09692219 -3.02655949 250.03173501 -3.02615547 248.93426943 C-3.02107731 238.83909283 -3.00649848 228.74399092 -2.97222996 218.64886951 C-2.96057773 215.05159555 -2.95238949 211.45431794 -2.94462776 207.85703373 C-2.93771654 205.42105109 -2.92512144 202.98514373 -2.91221619 200.54918671 C-2.90863653 199.08929003 -2.90532852 197.62939265 -2.90234375 196.16949463 C-2.89710693 194.92103886 -2.89187012 193.67258308 -2.88647461 192.38629532 C-2.99459809 189.16113107 -3.40658966 186.16713065 -4 183 C-5.44976837 165.85184173 -5.06012855 148.48150644 -4.9921875 131.2890625 C-4.98643581 129.68632099 -4.98643581 129.68632099 -4.98056793 128.05120087 C-4.94373032 118.00329041 -4.89958321 107.95544681 -4.82861328 97.90771484 C-4.2281867 53.29293007 -4.2281867 53.29293007 -9 9 C-29.09597695 7.72765127 -49.20110679 7.83548965 -69.32746983 7.83274293 C-72.29305007 7.83202461 -75.25862589 7.82987584 -78.22420502 7.82724571 C-88.62196641 7.81804029 -99.01971513 7.81390495 -109.41748047 7.81469727 C-119.02749955 7.81529746 -128.63746241 7.80474448 -138.24746728 7.7889536 C-146.57011937 7.77577752 -154.8927533 7.77051751 -163.21541572 7.77115268 C-168.15449755 7.77140463 -173.0935292 7.76872418 -178.0326004 7.75797462 C-203.72819868 7.70597304 -229.12459082 7.87368322 -254.5234375 12.27734375 Z " fill="#191919" transform="translate(618,2)"/>
<path d="M0 0 C1.19496094 -0.00459229 2.38992188 -0.00918457 3.62109375 -0.01391602 C5.30525391 -0.01089478 5.30525391 -0.01089478 7.0234375 -0.0078125 C8.53429932 -0.00612061 8.53429932 -0.00612061 10.07568359 -0.00439453 C12.625 0.125 12.625 0.125 15.625 1.125 C18.23509426 1.21921536 20.82337001 1.26198962 23.43359375 1.265625 C25.00066564 1.28394764 26.56772335 1.30351745 28.13476562 1.32421875 C30.60156291 1.35321965 33.06744478 1.37500098 35.53442383 1.37548828 C37.91830358 1.37882205 40.30007938 1.41335342 42.68359375 1.453125 C43.41911972 1.4460553 44.15464569 1.4389856 44.91246033 1.43170166 C48.6940556 1.52157096 50.29798274 1.80864385 53.05883789 4.47949219 C55.71210021 8.96129274 55.69194984 12.54312129 55.50390625 17.58203125 C55.45442604 19.21556142 55.40546577 20.8491074 55.35693359 22.48266602 C55.32911804 23.36624786 55.30130249 24.24982971 55.27264404 25.16018677 C54.62207387 46.38113306 54.50572159 67.59834048 54.50117111 88.82720566 C54.50000411 91.179212 54.49665084 93.53120604 54.4927063 95.88320923 C54.48681625 99.64209991 54.48657755 103.40095077 54.49074364 107.15984344 C54.49168985 108.5526401 54.49110605 109.94543883 54.48882484 111.33823395 C54.48623429 113.27504943 54.49081445 115.21187035 54.49560547 117.14868164 C54.49640106 118.23508438 54.49719666 119.32148712 54.49801636 120.44081116 C54.60075507 123.42157942 54.82677255 126.31363234 55.12599182 129.27728271 C55.71024315 135.41556079 55.75847405 141.50258651 55.73852539 147.66479492 C55.73867142 148.86609039 55.73881744 150.06738586 55.7389679 151.30508423 C55.73839529 154.56261107 55.73341961 157.82009357 55.72639394 161.07761168 C55.72009413 164.49553083 55.7195514 167.91345107 55.71836853 171.33137512 C55.7152746 177.78734786 55.70708762 184.24330342 55.69701904 190.69926864 C55.68579735 198.05609237 55.68033227 205.41291697 55.67532361 212.76974714 C55.66490316 227.88817428 55.64734167 243.00658541 55.625 258.125 C56.285 258.125 56.945 258.125 57.625 258.125 C62.36472783 267.60445566 59.77007776 284.71798553 59.625 295.125 C59.61243164 296.37007324 59.59986328 297.61514648 59.58691406 298.89794922 C59.36826949 319.13760119 58.23818365 339.20431553 56.5625 359.375 C54.69146026 382.0756823 54.13655923 404.39933573 54.87426758 427.15625 C55.50507574 446.97469262 55.71016272 466.77708216 55.6875 486.60546875 C55.6860882 487.84889856 55.6846764 489.09232838 55.68322182 490.37343788 C55.67097629 499.3531445 55.64887728 508.3328179 55.625 517.3125 C55.60113571 526.37264601 55.58089683 535.43277439 55.56906128 544.49294472 C55.56270505 548.05311751 55.55022005 551.61323138 55.53735352 555.17338562 C55.51387472 565.18604239 55.56633514 575.18122 56.03222656 585.18457031 C56.06663345 585.96352756 56.10104034 586.7424848 56.13648987 587.54504681 C56.42179983 592.82718151 57.187672 597.93495983 58.171875 603.12890625 C59.78451327 611.96697418 60.01700535 620.55873441 59.90625 629.52905273 C59.87505633 632.05793294 59.86524458 634.58618019 59.859375 637.11523438 C59.82032527 645.27909887 59.59725382 653.40876516 59.1171875 661.55859375 C58.56939934 670.89833937 58.47242603 680.21460719 58.49462891 689.56884766 C58.5000112 692.25559082 58.49462826 694.94216793 58.48828125 697.62890625 C58.48894202 699.40104202 58.49022317 701.17317769 58.4921875 702.9453125 C58.49016327 703.71666534 58.48813904 704.48801819 58.48605347 705.28274536 C58.50405047 709.72616454 58.68118801 714.13161224 58.98910713 718.56489086 C59.76310897 729.93239243 59.74028289 741.27821745 59.70016479 752.66796303 C59.68721765 756.38177181 59.68084001 760.09554422 59.67602539 763.80937195 C59.66373099 772.35342932 59.64198086 780.8974537 59.61979675 789.44149017 C59.59789658 797.92754892 59.58009024 806.41359838 59.56906128 814.89967918 C59.56262958 818.53993967 59.55012776 822.18014588 59.53735352 825.82038879 C59.53371834 828.06946772 59.53036694 830.31854712 59.52734375 832.56762695 C59.52217743 833.56376007 59.51701111 834.55989319 59.51168823 835.58621216 C59.51123698 841.67458086 59.91712898 847.57231193 60.70265198 853.61334515 C60.625 856.125 60.625 856.125 59.26600647 857.95201588 C57.10569663 859.49619574 55.99759852 859.38497919 53.3671875 859.1640625 C52.45477295 859.10420166 51.5423584 859.04434082 50.60229492 858.98266602 C49.5785376 858.90588623 48.55478027 858.82910645 47.5 858.75 C31.38209362 857.79132747 15.30026251 858.39048309 -0.82666016 858.89501953 C-2.91178143 858.95223672 -4.99690504 859.00936923 -7.08203125 859.06640625 C-8.04566086 859.10176987 -9.00929047 859.13713348 -10.00212097 859.17356873 C-14.69234126 859.29568891 -18.07270177 859.19258347 -22.375 857.125 C-32.29140867 855.41735596 -42.73885246 855.93883449 -52.77294922 855.93969727 C-55.60529724 855.93751518 -58.43725195 855.9193118 -61.26953125 855.90039062 C-70.9290365 855.8715161 -80.22270851 856.31410153 -89.78320312 857.68188477 C-95.20245779 858.35045105 -100.54959579 858.30536588 -106 858.1875 C-108.03377995 858.15287701 -110.06764305 858.12278269 -112.1015625 858.09765625 C-112.97377441 858.07968994 -113.84598633 858.06172363 -114.74462891 858.04321289 C-117.42905551 858.06675358 -117.42905551 858.06675358 -120.25415039 858.61352539 C-123.73352654 859.18375875 -127.05689732 859.28612359 -130.58203125 859.3359375 C-131.98894283 859.36406102 -133.39584368 859.39272565 -134.80273438 859.421875 C-136.97614576 859.4625765 -139.14936918 859.4995292 -141.32299805 859.52636719 C-149.22789459 859.63194784 -156.75165315 860.06208318 -164.5078125 861.64453125 C-174.12613445 863.56224346 -183.66594791 863.54398595 -193.4440918 863.46118164 C-196.46494679 863.43728286 -199.48493176 863.44068621 -202.50585938 863.44726562 C-204.4531302 863.44169608 -206.40039738 863.43459078 -208.34765625 863.42578125 C-209.68220604 863.42714836 -209.68220604 863.42714836 -211.04371643 863.42854309 C-214.95523425 863.3844432 -218.49079608 863.2069384 -222.26220703 862.13208008 C-227.5153572 860.667244 -232.78520839 860.76880514 -238.20703125 860.7109375 C-239.3662912 860.69143539 -240.52555115 860.67193329 -241.71994019 860.65184021 C-245.54238691 860.59092189 -249.36483064 860.54463434 -253.1875 860.5 C-254.52536466 860.4821394 -255.86322482 860.46393786 -257.20108032 860.44540405 C-266.24815987 860.32055327 -275.29532968 860.22322387 -284.34291077 860.14310455 C-286.31874099 860.12550123 -288.29456355 860.10704413 -290.27038574 860.08856201 C-321.03137266 859.80916932 -351.69736899 860.2003212 -382.43603516 861.40673828 C-448.78056283 863.98844389 -448.78056283 863.98844389 -474.66796875 859.52734375 C-484.87331782 858.41970312 -495.11690715 859.28059723 -505.3125 860.125 C-507.6547842 860.31453421 -509.9972284 860.50210365 -512.33984375 860.6875 C-513.3568335 860.77128906 -514.37382324 860.85507812 -515.42163086 860.94140625 C-516.39624268 861.00199219 -517.37085449 861.06257812 -518.375 861.125 C-519.98483765 861.23134766 -519.98483765 861.23134766 -521.62719727 861.33984375 C-522.53397217 861.26894531 -523.44074707 861.19804688 -524.375 861.125 C-526.39556965 858.09414553 -526.63711422 857.35127944 -526.75390625 853.921875 C-526.78806641 853.10589844 -526.82222656 852.28992188 -526.85742188 851.44921875 C-526.88384766 850.59972656 -526.91027344 849.75023437 -526.9375 848.875 C-526.99822914 847.20301056 -527.06198364 845.531128 -527.12890625 843.859375 C-527.15283447 843.11913086 -527.1767627 842.37888672 -527.20141602 841.61621094 C-527.35062573 838.9963453 -527.35062573 838.9963453 -527.85913086 835.91210938 C-528.45536391 831.53503077 -528.68651127 827.20697586 -528.875 822.796875 C-528.95830064 821.01041514 -529.04163495 819.22395685 -529.125 817.4375 C-529.25126283 814.64393487 -529.37609499 811.8503113 -529.5 809.05664062 C-529.62145062 806.34487611 -529.74800723 803.63338474 -529.875 800.921875 C-529.92817383 799.6656131 -529.92817383 799.6656131 -529.98242188 798.38397217 C-530.13787561 795.09191546 -530.32728539 792.26814382 -531.375 789.125 C-531.48375936 787.66365023 -531.54084931 786.19811137 -531.56445312 784.73291016 C-531.58117065 783.84834137 -531.59788818 782.96377258 -531.6151123 782.05239868 C-531.62868774 781.09924774 -531.64226318 780.1460968 -531.65625 779.1640625 C-531.67465942 778.18134369 -531.69306885 777.19862488 -531.71203613 776.18612671 C-531.77081248 773.04081225 -531.82360073 769.89544314 -531.875 766.75 C-531.94276324 762.61707548 -532.01648088 758.48431896 -532.09375 754.3515625 C-532.10732544 753.40246002 -532.12090088 752.45335754 -532.1348877 751.47549438 C-532.15160522 750.58462128 -532.16832275 749.69374817 -532.18554688 748.77587891 C-532.19807495 747.99661041 -532.21060303 747.21734192 -532.22351074 746.41445923 C-532.32588932 744.08863818 -532.32588932 744.08863818 -532.86827087 741.70283508 C-533.42995322 738.84544167 -533.57732002 736.13921455 -533.67211914 733.22875977 C-533.71207001 732.0545195 -533.75202087 730.88027924 -533.79318237 729.67045593 C-533.85108444 727.76270134 -533.85108444 727.76270134 -533.91015625 725.81640625 C-533.9534991 724.46966398 -533.99705232 723.12292846 -534.040802 721.77619934 C-534.18036675 717.41351076 -534.30928601 713.05053441 -534.4375 708.6875 C-534.48245624 707.18312532 -534.52742904 705.67875114 -534.57241821 704.17437744 C-535.58275997 670.10069523 -535.86764959 636.06582609 -534.73120117 601.98974609 C-534.49727211 594.64874378 -534.35848016 587.32226795 -534.41186523 579.97680664 C-534.57600334 556.62701999 -533.68921569 533.38204829 -532.57904053 510.06072998 C-532.38868418 506.02844244 -532.20506265 501.99586067 -532.0217371 497.96324825 C-531.63995028 489.56755087 -531.25432831 481.1720161 -530.85571289 472.77709961 C-530.81689751 471.95330181 -530.77808212 471.12950401 -530.73809052 470.28074265 C-530.55193299 466.42250421 -530.34602514 462.56758135 -530.0877533 458.7134552 C-529.46600239 449.40049753 -529.33979699 440.18406341 -529.46821785 430.85297203 C-529.70684051 410.87830438 -528.3897991 391.16520538 -526.6519165 371.27868652 C-526.07697468 364.6657917 -525.52968447 358.05055877 -524.98296928 351.43528175 C-524.79545719 349.19716903 -524.60009614 346.95987391 -524.40309143 344.72257996 C-522.6751643 324.65307092 -522.22070028 304.56428394 -522.33040047 284.42811203 C-522.34831364 281.02349161 -522.35825 277.61892126 -522.36631775 274.21426392 C-522.39031811 264.55376466 -522.42593116 254.89333383 -522.47094727 245.23291016 C-522.68439625 197.75456676 -522.68439625 197.75456676 -521.10125732 177.38044739 C-520.10395127 164.48080201 -520.1138278 151.61883401 -520.1875 138.6875 C-520.19439402 136.14965922 -520.20089803 133.61181735 -520.20703125 131.07397461 C-520.26200069 115.21187797 -520.5299452 99.3639842 -521.01879883 83.50976562 C-521.45892045 68.8271316 -521.43581811 54.15114509 -521.33789062 39.46313477 C-521.33366089 38.57674316 -521.32943115 37.69035156 -521.32507324 36.77709961 C-521.31686359 35.10918475 -521.30443859 33.44128381 -521.28723145 31.7734375 C-521.27885373 29.89041635 -521.32134717 28.00727527 -521.375 26.125 C-521.705 25.795 -522.035 25.465 -522.375 25.125 C-521.775 18.525 -521.775 18.525 -519.375 16.125 C-516.47412109 15.89453125 -516.47412109 15.89453125 -512.7734375 15.9375 C-512.10734467 15.94467041 -511.44125183 15.95184082 -510.75497437 15.95922852 C-503.86956998 16.06771228 -497.00763682 16.50916985 -490.13922119 16.97976685 C-477.94369373 17.80772934 -465.82260959 18.34405096 -453.59228516 18.13867188 C-448.87855157 18.06892489 -444.27475712 18.17340662 -439.578125 18.60546875 C-432.71616722 19.23406617 -425.88774617 19.34587634 -419 19.375 C-417.18242187 19.4059375 -417.18242187 19.4059375 -415.328125 19.4375 C-409.18502697 19.46369658 -403.64646727 19.09232157 -397.671875 17.625 C-389.60038005 15.71556539 -381.76861176 15.74086008 -373.52294922 15.84375 C-370.98259846 15.87521554 -368.4428713 15.88477013 -365.90234375 15.890625 C-364.26040919 15.8997872 -362.61848084 15.91016046 -360.9765625 15.921875 C-359.85757065 15.92824982 -359.85757065 15.92824982 -358.7159729 15.93475342 C-357.64347794 15.94916473 -357.64347794 15.94916473 -356.54931641 15.96386719 C-355.62670517 15.97410919 -355.62670517 15.97410919 -354.68545532 15.98455811 C-352.69175243 16.10574608 -350.70653931 16.35418151 -348.72773743 16.62599182 C-343.99790713 17.23556692 -339.32047738 17.27271795 -334.55688477 17.27026367 C-333.60766647 17.27362228 -332.65844818 17.2769809 -331.6804657 17.28044128 C-328.55909901 17.28989644 -325.43778635 17.2918921 -322.31640625 17.29296875 C-320.12654092 17.29618666 -317.9366758 17.29955113 -315.74681091 17.30305481 C-311.15810651 17.30903365 -306.56942091 17.31089615 -301.98071289 17.31030273 C-296.14438432 17.31020154 -290.30817859 17.32381466 -284.47187901 17.34107494 C-279.94611577 17.35228195 -275.42038132 17.35421924 -270.89460564 17.35369301 C-268.74555987 17.35486156 -266.59651307 17.35921895 -264.44748116 17.36702538 C-249.42188306 17.41646939 -234.95983898 16.61665789 -220.16275024 13.88839722 C-210.29572139 12.08022246 -200.71635214 11.79024085 -190.70785522 11.95635986 C-185.93965248 12.03320482 -181.17104698 12.05177274 -176.40234375 12.078125 C-175.41786758 12.08474152 -174.43339142 12.09135803 -173.41908264 12.09817505 C-147.7505635 12.24405968 -121.89679748 12.03790059 -96.375 9.125 C-94.31168323 8.89977973 -92.24807129 8.67738211 -90.18444824 8.45498657 C-81.70486641 7.54034918 -73.2297244 6.58904915 -64.75585938 5.62304688 C-60.63484651 5.15346102 -56.51283619 4.69332143 -52.390625 4.234375 C-50.03121887 3.96902666 -47.67184184 3.70341941 -45.3125 3.4375 C-44.23701904 3.31834229 -43.16153809 3.19918457 -42.0534668 3.07641602 C-41.07547119 2.96483154 -40.09747559 2.85324707 -39.08984375 2.73828125 C-38.24542725 2.64329346 -37.40101074 2.54830566 -36.53100586 2.45043945 C-34.19861344 2.16125455 -34.19861344 2.16125455 -31.375 1.125 C-20.95541517 0.04848677 -10.46424237 0.02293571 0 0 Z M-67.50097656 11.49536133 C-78.32992544 13.25537262 -89.04642581 14.53367107 -100 15.1875 C-101.34066148 15.27134016 -102.68131896 15.35524442 -104.02197266 15.43920898 C-114.4090207 16.07418152 -124.79892088 16.4942779 -135.20166016 16.78344727 C-139.71546124 16.91564923 -144.16695561 17.04868529 -148.64453125 17.65234375 C-154.87205291 18.41741111 -161.15224545 18.19588858 -167.41482544 18.14276123 C-179.5948016 18.04757322 -191.76276657 18.10313263 -203.9375 18.5 C-205.05229736 18.5309375 -206.16709473 18.561875 -207.31567383 18.59375 C-212.05979255 18.76812606 -216.5750617 19.07346691 -221.21484375 20.1015625 C-235.14296315 23.14019818 -250.12323065 22.39009076 -264.32397461 22.60180664 C-274.29724513 22.75658186 -284.0825313 23.20205878 -293.98464966 24.42425537 C-301.01757836 25.26706422 -307.9811208 25.38770749 -315.0625 25.3125 C-316.25810547 25.31185547 -317.45371094 25.31121094 -318.68554688 25.31054688 C-324.36054433 25.28215612 -329.76351134 25.02768845 -335.375 24.125 C-347.68122498 23.07452205 -360.08884086 23.00717163 -372.43341064 22.94876099 C-373.87935386 22.94133133 -375.32528469 22.93071881 -376.7711792 22.91671753 C-378.831944 22.89858509 -380.8922888 22.89468864 -382.953125 22.89453125 C-384.14325195 22.89042236 -385.33337891 22.88631348 -386.55957031 22.88208008 C-389.55523336 23.07280728 -391.95126802 23.45322289 -394.83203125 24.1315918 C-401.26013011 25.49320375 -407.6836044 25.34953311 -414.219841 25.27532959 C-416.54765994 25.24929214 -418.87524427 25.23663793 -421.20318604 25.22705078 C-427.00036661 25.20059499 -432.79733054 25.15296499 -438.59436035 25.10424805 C-463.28946752 24.90004442 -487.83090453 24.96612495 -512.375 28.125 C-512.38530746 29.0593689 -512.39561493 29.99373779 -512.40623474 30.9564209 C-512.50420524 39.78367635 -512.60696039 48.61086501 -512.71433926 57.43801117 C-512.76938488 61.97557775 -512.82277432 66.51315096 -512.87231445 71.05078125 C-512.92023033 75.43395762 -512.97258074 79.81706109 -513.02794075 84.20014954 C-513.04824165 85.8681709 -513.06697395 87.53621216 -513.08407402 89.20426941 C-513.10839201 91.54966373 -513.13840565 93.89492382 -513.16967773 96.24023438 C-513.1754332 96.9221283 -513.18118866 97.60402222 -513.18711853 98.30657959 C-513.24688685 102.27822134 -513.61676367 106.12368946 -514.14733982 110.05722809 C-514.55846522 113.7913618 -514.54512374 117.52800066 -514.56445312 121.28125 C-514.57274643 122.16070282 -514.58103973 123.04015564 -514.58958435 123.94625854 C-514.60689697 125.84605173 -514.62208718 127.74586522 -514.63536072 129.64569092 C-514.65661754 132.67742018 -514.6836309 135.70905244 -514.71203613 138.74072266 C-514.77150801 145.20210928 -514.82357716 151.66354508 -514.875 158.125 C-514.94296373 166.58338089 -515.01438531 175.04171779 -515.09375 183.5 C-515.10328138 184.52580799 -515.11281277 185.55161598 -515.12263298 186.60850906 C-515.23441947 198.18132994 -515.42562387 209.72867751 -516.01307678 221.28866577 C-516.45357727 230.47335162 -516.53311055 239.65812203 -516.62109375 248.8515625 C-516.6294437 249.69392204 -516.63779366 250.53628159 -516.64639664 251.40416718 C-516.72366469 259.25928173 -516.79324701 267.1144499 -516.85180664 274.96972656 C-517.06841924 303.33811755 -517.94830954 331.61797007 -520.19250488 359.90519714 C-521.5179715 376.64862416 -521.78985204 393.39238435 -522.03344727 410.18115234 C-522.0496814 411.20425003 -522.06591553 412.22734772 -522.0826416 413.28144836 C-522.11279659 415.21887636 -522.13887532 417.15637341 -522.16027832 419.09391785 C-522.17385376 419.96212662 -522.1874292 420.83033539 -522.20141602 421.72485352 C-522.21568382 422.8593972 -522.21568382 422.8593972 -522.23023987 424.01686096 C-522.375 426.125 -522.375 426.125 -522.85580444 428.01217651 C-523.53761568 430.78675111 -523.67863158 433.47838183 -523.85571289 436.33032227 C-523.93569519 437.60715881 -524.01567749 438.88399536 -524.0980835 440.19952393 C-524.18179741 441.61345383 -524.26497011 443.02741587 -524.34765625 444.44140625 C-524.39097328 445.1694622 -524.43429031 445.89751816 -524.47891998 446.64763641 C-524.81528831 452.32668978 -525.13114264 458.00675388 -525.4375 463.6875 C-525.48347195 464.53957912 -525.52944389 465.39165825 -525.57680893 466.26955795 C-527.63032377 504.70505977 -527.81684225 543.04034842 -527.45190907 581.51905918 C-527.38562637 588.61306493 -527.33561125 595.70709354 -527.29150391 602.80126953 C-527.21655863 614.80569441 -527.12583704 626.80993398 -527.02578354 638.81417465 C-527.0002969 641.96331501 -526.97716824 645.11246543 -526.95449829 648.2616272 C-526.91775569 653.23973011 -526.87105075 658.2176537 -526.81725121 663.19560051 C-526.79891956 665.01427329 -526.78353241 666.83297896 -526.77157021 668.65170479 C-526.70050338 679.06245844 -526.16588863 689.29548567 -525.0935688 699.65259266 C-524.34568491 706.9851058 -524.06440701 714.25744964 -524.03125 721.62890625 C-524.01016231 723.57856452 -523.98906 725.5282227 -523.96732044 727.4778738 C-523.94598268 729.50199819 -523.9285036 731.52612417 -523.91195679 733.55029297 C-523.85197386 740.62893423 -523.74817734 747.70704185 -523.64453125 754.78515625 C-523.63435785 755.48854252 -523.62418446 756.19192879 -523.61370277 756.91662979 C-523.28551268 798.28590942 -523.28551268 798.28590942 -517.375 839.125 C-517.18679688 839.98303223 -516.99859375 840.84106445 -516.8046875 841.72509766 C-516.33357715 843.85960909 -515.85508294 845.99248871 -515.375 848.125 C-509.20829898 849.13517055 -503.05996987 849.50373596 -496.82421875 849.84375 C-494.57747013 849.97258958 -492.33072546 850.10149783 -490.08398438 850.23046875 C-486.55728903 850.42934348 -483.03051969 850.62677705 -479.50366211 850.82275391 C-476.08945917 851.01354969 -472.67559006 851.20962302 -469.26171875 851.40625 C-468.20031174 851.463573 -467.13890472 851.520896 -466.04533386 851.57995605 C-465.06704117 851.63671509 -464.08874847 851.69347412 -463.08081055 851.75195312 C-462.21812057 851.80001099 -461.3554306 851.84806885 -460.46659851 851.89758301 C-458.375 852.125 -458.375 852.125 -456.375 853.125 C-454.99596885 853.28075887 -453.6105392 853.38184179 -452.22460938 853.45385742 C-451.35928589 853.50027878 -450.4939624 853.54670013 -449.60241699 853.5945282 C-448.65080688 853.63938858 -447.69919678 853.68424896 -446.71875 853.73046875 C-445.71138794 853.77818924 -444.70402588 853.82590973 -443.6661377 853.87507629 C-441.50053507 853.97448192 -439.33479621 854.07095417 -437.16894531 854.16479492 C-435.04419502 854.26007167 -432.91978004 854.36332085 -430.79589844 854.47631836 C-416.35780493 855.24393366 -402.18172914 855.00779791 -387.765625 854.1953125 C-360.23874164 852.65981279 -332.69220196 852.78580271 -305.13253021 852.81132215 C-299.29183084 852.8153298 -293.45128346 852.80049761 -287.61061883 852.7817561 C-281.88050007 852.76406681 -276.15044811 852.75814735 -270.42030311 852.76139385 C-267.03896192 852.7631837 -263.65789411 852.7594275 -260.27655792 852.74667931 C-247.17826545 852.70320322 -235.08608087 852.7704264 -222.375 856.125 C-219.72750206 856.49587374 -217.20897118 856.61826242 -214.52734375 856.70703125 C-213.87101456 856.73058685 -213.21468536 856.75414246 -212.53846741 856.77841187 C-210.46324146 856.84681023 -208.38838878 856.8941568 -206.3125 856.9375 C-205.59698975 856.95624176 -204.88147949 856.97498352 -204.14428711 856.99429321 C-180.21365697 858.07491684 -180.21365697 858.07491684 -157.375 852.125 C-155.41437856 851.98270275 -153.44938417 851.89873984 -151.484375 851.84375 C-150.29972656 851.80636719 -149.11507813 851.76898437 -147.89453125 851.73046875 C-146.65058594 851.69566406 -145.40664063 851.66085937 -144.125 851.625 C-141.6821838 851.55579115 -139.23946607 851.48299446 -136.796875 851.40625 C-135.70987305 851.37595703 -134.62287109 851.34566406 -133.50292969 851.31445312 C-130.39703663 851.12633472 -127.43528791 850.67424806 -124.375 850.125 C-101.50044308 847.97771434 -78.3183562 848.02222451 -55.36154175 847.94876099 C-53.23483916 847.94136149 -51.10814482 847.93077737 -48.98147583 847.91671753 C-37.94913345 847.85046738 -27.14711011 848.08379036 -16.18901062 849.40505981 C-8.663552 850.28585382 -1.2050183 850.39610579 6.36499023 850.33081055 C8.61518241 850.31206103 10.8649707 850.31030535 13.11523438 850.31054688 C20.94485937 850.39475973 20.94485937 850.39475973 28.625 849.125 C30.50256738 848.97992152 32.38376493 848.87866301 34.265625 848.80859375 C35.33554687 848.76669922 36.40546875 848.72480469 37.5078125 848.68164062 C38.61898437 848.64232422 39.73015625 848.60300781 40.875 848.5625 C42.56496094 848.49772461 42.56496094 848.49772461 44.2890625 848.43164062 C47.06758954 848.32567985 49.84620391 848.22360858 52.625 848.125 C53.85525917 845.66448167 53.75081401 844.06218842 53.75198364 841.31015015 C53.75480347 840.29134262 53.75762329 839.2725351 53.76052856 838.22285461 C53.75850433 837.09921005 53.7564801 835.97556549 53.75439453 834.81787109 C53.75614685 833.63647049 53.75789917 832.45506989 53.75970459 831.23786926 C53.76336796 827.97659072 53.76248026 824.71535237 53.7593255 821.45407438 C53.75677916 817.99449808 53.7591482 814.53492432 53.76071167 811.0753479 C53.76253792 805.21559171 53.76012681 799.35584804 53.75537109 793.49609375 C53.75062382 787.58104622 53.75046561 781.66602397 53.75537109 775.75097656 C53.77840817 747.19833885 53.77680665 718.64942995 53.1796875 690.1015625 C53.16027225 689.14845562 53.14085701 688.19534874 53.12085342 687.21335983 C52.88995855 676.25091396 52.4782588 665.31308309 51.84828186 654.36624146 C51.49680124 648.08275622 51.3772664 641.79267466 51.23602295 635.50161743 C50.92018737 621.65947765 50.27809122 607.87747401 49.19750977 594.07324219 C49.10912842 592.87989258 49.02074707 591.68654297 48.9296875 590.45703125 C48.84702637 589.42296143 48.76436523 588.3888916 48.67919922 587.32348633 C48.62622778 584.19745579 48.95262213 581.25213341 49.38278198 578.15968323 C49.7684626 574.91988344 49.75494736 571.70132152 49.7578125 568.44140625 C49.75876923 567.74160141 49.75972595 567.04179657 49.76071167 566.32078552 C49.76138676 564.85277211 49.75957974 563.38475559 49.75537109 561.91674805 C49.7500214 559.69638209 49.75533488 557.47621911 49.76171875 555.25585938 C49.76105769 553.8177079 49.75977596 552.37955654 49.7578125 550.94140625 C49.75668457 549.65693604 49.75555664 548.37246582 49.75439453 547.04907227 C49.66264366 544.26659711 49.4733549 541.68871035 49.12301636 538.94529724 C48.59374303 534.30430106 48.49665739 529.74310033 48.52734375 525.07617188 C48.52880402 524.22124649 48.53026428 523.36632111 48.5317688 522.48548889 C48.53554802 520.64567986 48.54163575 518.80587436 48.54983521 516.96607971 C48.56270326 514.04765087 48.56914092 511.12926798 48.57397461 508.21081543 C48.58728089 500.96565368 48.61150774 493.72053606 48.63537598 486.47540283 C48.65516349 480.34115338 48.67077883 474.20692027 48.68093872 468.07264709 C48.68738021 465.20949328 48.6998863 462.34640795 48.71264648 459.48327637 C48.71628193 457.71346088 48.71963329 455.94364477 48.72265625 454.17382812 C48.72782257 453.38810928 48.73298889 452.60239044 48.73831177 451.79286194 C48.73874856 447.15686245 48.42979678 442.64837457 47.85328674 438.04761505 C47.57592386 435.71168417 47.49193287 433.41406934 47.5 431.0625 C47.49742187 430.30839844 47.49484375 429.55429687 47.4921875 428.77734375 C47.625 426.125 47.625 426.125 48.125 422.75 C48.97130358 416.26343884 48.77369241 409.71657483 48.75 403.1875 C48.74867065 402.13394821 48.74867065 402.13394821 48.74731445 401.05911255 C48.73179804 390.52570681 48.46494849 380.0217543 47.98535156 369.49829102 C47.246155 353.25620006 47.246155 353.25620006 47.625 346.125 C47.955 345.795 48.285 345.465 48.625 345.125 C49.83886196 335.05873921 49.77392236 324.89214443 49.7578125 314.76953125 C49.7584882 313.24973027 49.75946044 311.7299294 49.76071167 310.21012878 C49.76217118 307.05796254 49.76008776 303.90582498 49.75537109 300.75366211 C49.74962045 296.71424285 49.75299714 292.67488927 49.75894356 288.6354723 C49.76255075 285.51199341 49.76141079 282.38853023 49.75881577 279.26505089 C49.75814972 277.77429891 49.75896365 276.28354549 49.76129532 274.79279518 C49.76383027 272.72095544 49.75997181 270.64922421 49.75439453 268.57739258 C49.75359894 267.40050369 49.75280334 266.22361481 49.75198364 265.01106262 C49.75408896 262.0552312 49.75408896 262.0552312 48.625 259.125 C45.81292811 243.16352552 45.16080221 227.20056666 45.11328125 211.03515625 C45.09632954 208.79112338 45.07816652 206.54709938 45.05888367 204.30308533 C45.0119133 198.44518936 44.98183771 192.5873289 44.95544434 186.72930908 C44.92590159 180.89823373 44.87892055 175.06730132 44.83398438 169.23632812 C44.68514678 149.1072886 44.59919131 128.97767036 44.57716942 108.84808159 C44.57524741 107.14810529 44.5726385 105.44812958 44.56923866 103.74815559 C44.54668627 90.91596799 44.88888716 78.12728771 45.3984375 65.3046875 C45.89831742 52.39046676 45.66322326 39.5374884 45.1875 26.625 C45.12876709 24.9838623 45.12876709 24.9838623 45.06884766 23.30957031 C45.02679199 22.28959961 44.98473633 21.26962891 44.94140625 20.21875 C44.88641968 18.85266602 44.88641968 18.85266602 44.83032227 17.45898438 C44.70230058 14.97044186 44.70230058 14.97044186 43.625 12.125 C30.68499392 3.49832928 3.74868151 6.82606005 -11.625 6.75 C-13.0059938 6.74265839 -13.0059938 6.74265839 -14.41488647 6.73516846 C-32.39225171 6.69614309 -49.7822925 8.61407474 -67.50097656 11.49536133 Z " fill="#161616" transform="translate(550.375,12.875)"/>
<path d="M0 0 C0 4.62 0 9.24 0 14 C-0.33 14 -0.66 14 -1 14 C-1 12.02 -1 10.04 -1 8 C-27.27963303 7.95307846 -53.55925969 7.9179131 -79.83892632 7.89637566 C-92.04367354 7.88610536 -104.24839459 7.87212722 -116.453125 7.84912109 C-127.10273131 7.82905614 -137.75231864 7.81625279 -148.40194333 7.81182301 C-154.02993759 7.8092376 -159.65787762 7.80325164 -165.28585434 7.78853989 C-206.06098038 7.65921731 -206.06098038 7.65921731 -246.5234375 12.27734375 C-251.91402805 13.18764383 -257.33618749 13.75212205 -262.77734375 14.265625 C-266.31586549 14.61881079 -269.68503456 15.1334321 -273.13761902 15.99478149 C-278.07979224 17.11003105 -282.89392516 17.42992075 -287.9465332 17.61083984 C-289.37400784 17.67073027 -289.37400784 17.67073027 -290.83032036 17.7318306 C-293.96601254 17.85954971 -297.10200033 17.9736642 -300.23828125 18.0859375 C-301.33047785 18.12741283 -302.42267445 18.16888817 -303.54796791 18.21162033 C-328.30670115 19.14675518 -353.06555362 19.43124409 -377.83947754 19.60089111 C-382.3640239 19.63347207 -386.88850037 19.6728346 -391.41298962 19.71247292 C-408.73515956 19.86414469 -426.05724045 20.00676374 -443.38012695 20.03442383 C-444.31351741 20.03723925 -445.24690786 20.04005466 -446.20858288 20.0429554 C-454.49981359 20.0477349 -462.73106633 19.63459011 -471 19.0625 C-472.35802897 18.97393289 -473.71610241 18.88604512 -475.07421875 18.79882812 C-480.25714427 18.46268679 -485.43909582 18.12114732 -490.61743164 17.71923828 C-501.22692116 16.92462222 -511.80148292 16.76214211 -522.4375 16.75 C-523.84727112 16.74649536 -523.84727112 16.74649536 -525.28552246 16.74291992 C-545.61413599 16.72407572 -565.76794734 18.12629266 -586 20 C-586.02505615 20.58378418 -586.0501123 21.16756836 -586.07592773 21.76904297 C-586.19356199 24.47116313 -586.31551273 27.17307299 -586.4375 29.875 C-586.47681641 30.7928125 -586.51613281 31.710625 -586.55664062 32.65625 C-586.75432655 36.97492721 -587.00861871 41.24661283 -587.52734375 45.5390625 C-588.28149084 52.67418287 -588.14878609 59.84691573 -588.13037109 67.01318359 C-588.12501182 69.49452829 -588.13034251 71.97569204 -588.13671875 74.45703125 C-588.1394787 81.55193368 -588.07360685 88.52209238 -587.22705078 95.57470703 C-586.72590006 100.92785897 -586.85762555 106.31589829 -586.875 111.6875 C-586.86919922 113.40549805 -586.86919922 113.40549805 -586.86328125 115.15820312 C-586.87013267 121.47863408 -587.02046979 127.76389812 -587.34146118 134.07470703 C-587.94931014 146.14655718 -588.15626428 158.20843217 -588.28125 170.29296875 C-588.29080845 171.21091154 -588.3003669 172.12885433 -588.310215 173.07461357 C-588.37868903 179.77886258 -588.43996417 186.48317092 -588.5 193.1875 C-588.88721599 236.28364164 -588.88721599 236.28364164 -589.60401917 253.68991089 C-590.06888381 265.54628288 -590.26025921 277.40629645 -590.46484375 289.26953125 C-590.48418095 290.37421942 -590.50351814 291.47890759 -590.52344131 292.61707115 C-590.70481684 302.9793964 -590.881553 313.34179475 -591.04956055 323.7043457 C-591.46790284 349.35546685 -592.06658538 374.97404791 -593.2361908 400.6026001 C-593.86924372 414.51493204 -594.37012262 428.42700934 -594.78125 442.34765625 C-594.81107468 443.35573774 -594.84089935 444.36381924 -594.87162781 445.40244865 C-595.02246776 450.5244062 -595.17093911 455.64642875 -595.31808472 460.76849365 C-595.59887483 470.52454143 -595.89417576 480.28015779 -596.18800163 490.03582001 C-596.28420195 493.23003251 -596.38022672 496.42425025 -596.47621155 499.61846924 C-596.62411592 504.53878533 -596.77239212 509.45909009 -596.92093658 514.3793869 C-596.99391134 516.79818719 -597.06663943 519.21699478 -597.13934326 521.63580322 C-597.38798035 529.88281686 -597.64932721 538.12926609 -597.9375 546.375 C-597.97309021 547.40106354 -598.00868042 548.42712708 -598.04534912 549.48428345 C-598.52062129 562.75656757 -599.31746818 575.98535129 -600.28788757 589.23027039 C-604.19393666 642.56861178 -603.34599287 695.31469256 -601.125 748.6875 C-601.05975632 750.26060125 -601.05975632 750.26060125 -600.99319458 751.86548233 C-599.80077414 782.23066012 -599.80077414 782.23066012 -597.41162109 812.51806641 C-596.82927886 818.38062989 -596.61619733 824.26038057 -596.41662598 830.14653015 C-596.26879287 834.43731181 -595.772515 838.52755318 -595.0078125 842.75390625 C-593.86413859 849.25040839 -593.56158003 855.66527987 -593.375 862.25 C-593.33632813 863.38824219 -593.29765625 864.52648437 -593.2578125 865.69921875 C-593.16481152 868.46599779 -593.07897139 871.23279117 -593 874 C-592.34 874.33 -591.68 874.66 -591 875 C-590.91903197 876.45742463 -590.86082226 877.91612807 -590.8125 879.375 C-590.77769531 880.18710937 -590.74289062 880.99921875 -590.70703125 881.8359375 C-590.80371094 882.55007813 -590.90039062 883.26421875 -591 884 C-594 886 -594 886 -596.5 885.6875 C-600.36617799 883.07782986 -600.98586149 879.42976041 -602 875 C-602.28769426 871.69219939 -602.1873645 868.44006013 -602.0625 865.125 C-601.89823094 856.26752006 -602.2214839 847.5223606 -602.875 838.6875 C-602.95371338 837.56166504 -603.03242676 836.43583008 -603.11352539 835.27587891 C-603.19723389 834.19870605 -603.28094238 833.1215332 -603.3671875 832.01171875 C-603.44050293 831.06772217 -603.51381836 830.12372559 -603.58935547 829.15112305 C-603.92406588 826.58268825 -604.41428668 824.25378898 -605.03613281 821.75048828 C-606.17682992 816.7695178 -606.18586777 812.06810651 -606.0546875 806.98046875 C-606.02603246 804.94459811 -605.99876368 802.90870764 -605.97265625 800.87280273 C-605.95605957 799.7898996 -605.93946289 798.70699646 -605.92236328 797.59127808 C-605.59559556 774.10800631 -606.48355618 750.8284128 -607.85675812 727.39447403 C-610.31314725 685.26095691 -611.446958 643.58461472 -607.59960938 601.47851562 C-604.5446467 567.87127738 -603.69076043 534.07092643 -602.59119034 500.35355377 C-602.4981248 497.50510591 -602.40398639 494.656695 -602.30966187 491.80828857 C-601.37408631 463.47980186 -600.56318516 435.14899975 -599.87759399 406.81336594 C-599.81323907 404.15552359 -599.74818991 401.49769883 -599.68310547 398.83987427 C-599.56220648 393.87510744 -599.44550412 388.91025441 -599.33203125 383.9453125 C-599.31417194 383.16994329 -599.29631264 382.39457409 -599.27791214 381.59570885 C-599.08729326 373.1831473 -598.9773862 364.78210539 -599.07421875 356.3671875 C-599.14567797 349.31659107 -598.65290814 342.40030971 -598.0390625 335.37890625 C-596.30864909 314.77021099 -596.53706505 294.05837153 -596.39931107 273.39196014 C-596.36657644 268.74056076 -596.32626058 264.08923929 -596.28592777 259.43790054 C-596.10563275 238.55117776 -595.95847653 217.66491968 -596.01171875 196.77734375 C-596.01323692 196.08476156 -596.0147551 195.39217937 -596.01631927 194.67860985 C-596.03141346 187.97677276 -596.06149054 181.27553387 -596.12451172 174.57397461 C-596.1893923 165.44588411 -595.99463069 156.81914583 -594.46948242 147.796875 C-593.3247368 138.53890107 -593.61271678 129.12727524 -593.625 119.8125 C-593.62282471 118.12882324 -593.62282471 118.12882324 -593.62060547 116.41113281 C-593.62306704 99.09647468 -594.82183034 82.29790184 -597.10546875 65.15625 C-598.15400517 57.2289442 -598.44679504 49.53985014 -598.09863281 41.56201172 C-597.97599179 38.37638071 -597.92409901 35.19137556 -597.8671875 32.00390625 C-597.80914194 29.52339351 -597.7492499 27.04292329 -597.6875 24.5625 C-597.66534424 23.38107422 -597.64318848 22.19964844 -597.62036133 20.98242188 C-597.58450928 19.87576172 -597.54865723 18.76910156 -597.51171875 17.62890625 C-597.48553467 16.63963135 -597.45935059 15.65035645 -597.43237305 14.63110352 C-596.9218993 11.52473675 -596.31900191 10.13506282 -594 8 C-591.45751953 7.5300293 -591.45751953 7.5300293 -588.3828125 7.57421875 C-586.66143066 7.58582031 -586.66143066 7.58582031 -584.90527344 7.59765625 C-583.6577832 7.62730469 -582.41029297 7.65695313 -581.125 7.6875 C-579.81563477 7.70296875 -578.50626953 7.7184375 -577.15722656 7.734375 C-567.52768842 7.85929262 -557.90665408 8.24143007 -548.28540039 8.64550781 C-537.12090347 9.06561782 -525.96916842 9.0071866 -514.79824829 8.95285034 C-497.91076296 8.87273636 -481.21324377 9.02342443 -464.37890625 10.46484375 C-438.81710981 12.45790915 -413.16621641 12.15632542 -387.546875 12.13037109 C-381.92030978 12.12471565 -376.29379224 12.12804376 -370.6672287 12.13379669 C-349.69694017 12.15214784 -328.73071617 12.10550128 -307.765625 11.6015625 C-306.63552631 11.5772434 -306.63552631 11.5772434 -305.48259735 11.55243301 C-288.13492775 11.16415384 -270.83019334 9.36853313 -253.84912109 5.71508789 C-229.5615005 0.6440083 -205.04969608 1.20947997 -180.34631348 1.19311523 C-174.04979984 1.18361418 -167.75345005 1.14553942 -161.45703125 1.11132812 C-146.30470517 1.03553066 -131.15249588 1.01047199 -116 1 C-114.8437059 0.99909615 -113.6874118 0.99819229 -112.49607849 0.99726105 C-104.85936463 0.99153301 -97.22265344 0.98871374 -89.5859375 0.98828125 C-88.56451283 0.98820761 -87.54308815 0.98813396 -86.49071121 0.98805809 C-76.91082838 0.98813586 -67.33104367 0.99231772 -57.75121498 1.02663708 C-54.3031694 1.03861676 -50.85511909 1.04700404 -47.40706253 1.05512047 C-45.11975666 1.06213285 -42.83253546 1.07480692 -40.54525757 1.08784485 C-31.64829766 1.11883809 -22.81712566 0.78578944 -13.93798828 0.22265625 C-9.27749424 -0.04085091 -4.66590592 -0.07525655 0 0 Z " fill="#181818" transform="translate(610,3)"/>
<path d="M0 0 C0.33 0 0.66 0 1 0 C1.6948887 11.54009594 2.35856685 23.08181271 3 34.625 C3.04780357 35.48277164 3.09560715 36.34054329 3.14485931 37.22430801 C4.56339445 62.80009933 5.41981405 88.23926854 5.02734375 113.85986328 C5.01404022 114.89916489 5.00073669 115.93846649 4.98703003 117.00926208 C4.96044931 118.90239491 4.92430559 120.79543486 4.8755188 122.68812561 C4.79841445 127.69620654 5.30910768 132.11469166 6.51651001 136.97520447 C7.15378829 139.64404611 7.4205486 142.27864613 7.6328125 145.01171875 C7.75837524 146.62747803 7.75837524 146.62747803 7.88647461 148.27587891 C7.96518799 149.40171387 8.04390137 150.52754883 8.125 151.6875 C8.21209229 152.86489746 8.29918457 154.04229492 8.38891602 155.25537109 C8.97115538 163.76925947 9.15963374 172.2275133 8.83837891 180.7565918 C8.70434521 186.2492928 8.80572367 192.3195896 12 197 C16.29777315 198.77568928 19.8879209 199.23186032 24.51293945 199.16357422 C25.79767151 199.15067352 27.08240356 199.13777283 28.40606689 199.1244812 C29.4312228 199.10728846 29.4312228 199.10728846 30.47708893 199.08974838 C32.66065518 199.05390996 34.84399322 199.0315713 37.027771 199.01296997 C40.15919261 198.98605204 43.29054487 198.95562343 46.42190552 198.92236328 C69.73070765 198.68644194 92.83996379 198.70701746 116.0625 201 C132.14080316 202.57164208 148.0271854 203.39836971 164.1875 203.375 C165.137388 203.3764502 166.087276 203.37790039 167.06594849 203.37939453 C179.18196148 203.37727243 191.10895153 202.66189253 203.16333008 201.46337891 C209.32794021 200.85343452 215.48196276 200.60331715 221.671875 200.43359375 C226.47663315 200.26305449 231.19974159 199.87393271 235.97205544 199.27585602 C245.3304151 198.1230499 254.56207468 197.69543031 263.98524857 197.66447449 C266.50539086 197.65594074 269.0252105 197.63522547 271.54525757 197.61193848 C276.90512145 197.56442503 282.26501909 197.53110498 287.625 197.5 C294.67980032 197.4588814 301.73445913 197.41116521 308.7890625 197.34375 C310.06653728 197.33167165 310.06653728 197.33167165 311.36981964 197.31934929 C323.25252086 197.19420046 334.98971897 196.62002333 346.82177734 195.46337891 C355.19490416 194.65984857 363.59466606 194.57483091 372 194.4375 C375.25010026 194.37820106 378.50006844 194.31399523 381.75 194.24609375 C382.54567886 194.23008118 383.34135773 194.2140686 384.16114807 194.1975708 C388.90264952 194.08925237 393.6092037 193.8377861 398.33984375 193.48046875 C410.35947274 192.67484564 422.40956104 192.8465107 434.45050812 192.87082291 C436.58238178 192.87503932 438.71425432 192.87798286 440.84613037 192.88070679 C451.56421959 192.89610685 462.2820672 192.94134873 473 193 C473.80037941 193.00425743 474.60075882 193.00851486 475.42539215 193.01290131 C485.93666282 193.0696042 496.44740932 193.15080607 506.95822144 193.26446533 C510.04342796 193.29755009 513.12858865 193.32446889 516.21389771 193.34588623 C544.6097451 193.5519166 544.6097451 193.5519166 556.73583984 196.32495117 C562.29136908 197.47386952 567.84562767 197.44409345 573.5 197.5 C583.53575674 197.72141173 593.28299292 198.51442815 603.21875 199.9074707 C613.77767197 201.342223 624.35586425 201.7281901 635 202 C635 202.99 635 203.98 635 205 C425.45 205 215.9 205 0 205 C0 137.35 0 69.7 0 0 Z " fill="#F6F6F6" transform="translate(0,690)"/>
<path d="M0 0 C2.05078125 0.03255208 4.1015625 0.06510417 6.15234375 0.09765625 C5.82234375 1.41765625 5.49234375 2.73765625 5.15234375 4.09765625 C2.84234375 4.42765625 0.53234375 4.75765625 -1.84765625 5.09765625 C-2.41015625 3.16015625 -2.41015625 3.16015625 -2.84765625 1.09765625 C-1.84765625 0.09765625 -1.84765625 0.09765625 0 0 Z " fill="#020202" transform="translate(628.84765625,883.90234375)"/>
</svg>
