<svg version="1.1" id="Layer_1" xmlns="http://www.w3.org/2000/svg" xmlns:xlink="http://www.w3.org/1999/xlink" x="0px" y="0px"
	 width="100%" viewBox="0 0 500 500" enable-background="new 0 0 493 484" xml:space="preserve">
<circle cx="258" cy="261" r="245" fill="#ffffff"/>
<path fill="none" opacity="1.000000" stroke="#000000" stroke-linecap="round" stroke-linejoin="round" stroke-width="6.000000"
	d="
M410.000000,190.000000 
	C408.026276,187.249496 404.955536,186.782104 401.996338,186.545776 
	C386.170746,185.282043 370.343201,184.002045 354.496887,183.052155 
	C341.845703,182.293793 329.150696,181.364624 316.504578,181.682159 
	C304.330200,181.987869 292.138763,181.813141 280.002014,181.723953 
	C255.501617,181.543930 230.999664,181.728638 206.499802,181.523239 
	C191.500854,181.397491 176.499847,181.457352 161.500046,181.511978 
	C146.453430,181.566772 131.609787,183.548340 117.030724,187.125244 
	C112.989189,188.116821 109.709915,191.144318 105.007324,191.271332 
	C102.272102,191.345200 101.532097,195.549026 100.610046,198.040726 
	C95.042389,213.086624 94.591400,228.746078 96.043556,244.495987 
	C97.336136,258.515106 98.305717,272.618988 100.679207,286.469299 
	C103.519836,303.045563 104.544205,320.029541 110.498009,336.000732 
	C111.179398,337.828583 111.670280,339.747803 112.534027,341.483063 
	C114.322021,345.075165 118.861427,346.355164 124.981430,344.440643 
	C135.739120,341.075348 146.449753,341.178253 157.526688,342.819916 
	C166.268173,344.115479 175.108551,345.055634 183.983734,345.718018 
	C204.811798,347.272491 225.661026,348.010590 246.498444,347.825500 
	C264.505920,347.665558 282.556824,346.574066 300.480255,344.800354 
	C312.646515,343.596344 324.922729,343.759796 336.996124,341.726929 
	C350.576355,339.440308 364.300385,338.739685 378.000854,338.669647 
	C386.377869,338.626801 394.745880,339.004517 402.986237,337.428009 
	C408.890442,336.298431 414.711182,334.648590 420.476288,332.920959 
	C422.546417,332.300568 423.773651,330.665375 423.580200,327.994202 
	C423.275696,323.789703 423.035950,319.652283 422.168640,315.465057 
	C421.374207,311.629608 422.232849,307.483734 421.954834,303.503143 
	C421.221558,293.004944 421.619324,282.500977 421.476318,272.000336 
	C421.303802,259.330688 420.711914,246.667465 420.327240,234.005249 
	C419.972076,222.313919 418.277802,210.653793 416.928040,199.008347 
	C416.553253,195.774689 414.855621,192.923584 412.100586,190.672470 
	C398.317810,200.754044 384.481262,210.275742 371.454346,220.944275 
	C354.009155,235.231216 333.836700,245.056168 314.111603,255.706711 
	C300.297394,263.165680 285.421783,267.384369 270.996521,272.991028 
	C268.688019,273.888275 266.241516,274.480469 264.033997,275.568939 
	C262.683289,276.234955 261.447723,276.184357 260.533112,275.458313 
	C248.406281,265.831543 233.272842,262.910492 219.458099,257.099609 
	C208.794678,252.614273 198.584778,247.823486 188.704666,241.458420 
	C178.322098,234.769684 167.230377,228.832275 156.552536,222.412598 
	C148.278183,217.437912 139.589752,213.154938 131.901886,207.125092 
	C127.614517,203.762344 122.331795,201.669449 117.500549,198.999008 
	C114.281937,197.219940 111.214607,195.285385 110.000000,191.500000 
"/>
<path fill="none" opacity="1.000000" stroke="#000000" stroke-linecap="round" stroke-linejoin="round" stroke-width="6.000000"
	d="
M230.500000,32.500000 
	C228.863144,33.913956 226.882370,33.490963 225.000000,33.491726 
	C200.363541,33.501755 177.069641,39.571808 154.495148,48.988373 
	C139.226089,55.357597 125.810768,64.347198 113.922409,75.920296 
	C103.957703,85.620743 92.803825,94.071419 83.975533,104.980202 
	C69.237045,123.191986 57.669506,143.095718 50.468613,165.489914 
	C44.099709,185.296661 38.544693,205.337952 33.664577,225.539749 
	C31.669329,233.799332 31.479759,242.497681 30.504040,251.000458 
	C28.178312,271.267761 28.383404,291.675842 27.781134,312.008331 
	C27.410498,324.520935 29.554844,337.166321 34.505447,348.997711 
	C42.648335,368.458344 55.101063,384.892975 71.074448,398.412048 
	C94.974022,418.639496 121.304573,434.853241 150.945877,445.648621 
	C166.021439,451.139191 181.431778,455.300293 197.048676,458.241547 
	C212.258148,461.106110 227.503891,464.115540 242.987167,465.631042 
	C251.821777,466.495819 260.687286,466.831940 269.479858,467.703308 
	C282.679474,469.011444 295.864044,468.758575 308.992828,468.296570 
	C323.351501,467.791351 337.755249,467.235748 352.028717,464.659149 
	C362.498962,462.769135 372.889465,461.059235 383.031006,457.590637 
	C409.250122,448.623169 428.594971,432.020721 441.597198,407.551636 
	C447.511230,396.421997 453.881592,385.528107 458.963623,373.983978 
	C465.606232,358.895050 471.241394,343.512512 473.594727,327.013519 
	C475.609375,312.889099 476.212067,298.701874 477.067078,284.504028 
	C477.589478,275.829346 477.338257,267.166779 477.506470,258.500122 
	C477.714142,247.800461 474.965149,237.481857 473.654816,226.980682 
	C471.826263,212.325928 467.961853,198.284790 462.952942,184.517120 
	C457.302032,168.985016 449.247345,154.640900 439.951019,141.033478 
	C432.825684,130.603836 426.758942,119.415009 417.599487,110.398941 
	C414.811279,107.654411 412.154419,104.790161 408.981323,102.526176 
	C397.382050,94.250191 387.108398,84.316742 376.292053,75.155182 
	C360.875488,62.097141 344.093903,52.036922 325.430267,45.190075 
	C312.746765,40.537079 299.682373,36.810059 286.013184,35.374584 
	C267.704590,33.451897 249.372452,32.782822 231.000000,32.500000 
"/>
</svg>