<svg version="1.1" id="Layer_1" xmlns="http://www.w3.org/2000/svg" xmlns:xlink="http://www.w3.org/1999/xlink" x="0px" y="0px"
	 width="100%" viewBox="0 0 464 464" enable-background="new 0 0 464 464" xml:space="preserve">
<circle cx="240" cy="240" r="232" fill="#ffffff"/>
<path fill="#000000" opacity="1.000000" stroke="none" 
	d="
M452.661896,249.490875 
	C448.477173,280.050537 443.016113,309.930908 434.259094,339.092407 
	C423.594513,374.606293 402.887787,403.338287 372.459473,424.243835 
	C356.562103,435.166016 338.566040,442.644196 319.019440,445.198059 
	C313.719208,445.890503 308.544861,447.164154 303.528351,448.927155 
	C292.315369,452.867767 280.832916,453.733215 269.108124,452.457977 
	C268.777069,452.421997 268.440704,452.367188 268.111664,452.390259 
	C248.139954,453.788391 228.775864,448.830475 209.117584,446.954803 
	C188.933456,445.028961 169.905334,438.679932 150.385422,434.148041 
	C130.085526,429.434967 110.887749,421.611542 93.155319,411.315338 
	C79.238297,403.234528 65.977158,393.248779 55.181572,380.831238 
	C48.694687,373.369720 46.041233,363.802185 43.083454,354.697205 
	C34.749779,329.043427 27.517490,303.206665 28.485310,275.668701 
	C29.186735,255.710587 28.518799,235.690979 29.773315,215.739944 
	C31.000654,196.221161 35.757504,177.353653 41.353298,158.684311 
	C44.606453,147.830750 48.596024,137.319077 53.906631,127.248802 
	C57.636379,120.176231 62.559254,114.277084 68.315552,108.908920 
	C84.266403,94.033630 100.632889,79.624969 117.103165,65.331116 
	C118.979141,63.703037 120.804329,61.967152 122.390953,60.062862 
	C133.249191,47.030697 148.765167,41.919182 163.635529,35.739319 
	C180.607986,28.685867 198.848373,27.592772 216.697662,24.681421 
	C220.793137,24.013418 224.898880,23.407764 229.002563,22.791006 
	C238.484192,21.365974 247.832092,23.513206 257.081268,24.668072 
	C266.858276,25.888845 276.648834,25.438782 286.409821,26.574591 
	C298.403046,27.970146 309.921478,30.922251 321.366852,34.447014 
	C325.612396,35.754478 328.257507,39.632252 332.259857,41.389301 
	C340.311066,44.923809 348.520935,48.164875 356.311707,52.208355 
	C367.457428,57.993042 379.557495,62.139545 389.024139,70.956711 
	C391.154205,72.940605 393.966278,74.628593 396.754486,75.388832 
	C405.623901,77.807175 412.816010,83.324333 420.485870,87.852905 
	C428.262970,92.444809 432.662537,100.227654 435.102478,108.602097 
	C438.042725,118.693718 442.202698,128.151245 446.244476,137.805573 
	C452.606750,153.002548 457.552826,168.928116 457.446320,185.945740 
	C457.313782,207.114990 456.107849,228.164261 452.661896,249.490875 
M111.141533,412.306976 
	C116.565933,415.243713 122.083084,417.902344 128.107864,419.483398 
	C134.702911,421.214111 141.380844,422.827454 147.733368,425.250366 
	C179.941025,437.534668 213.806961,442.065887 247.685364,445.375671 
	C278.302704,448.366943 308.302124,442.836212 337.271637,432.399078 
	C368.188782,421.260223 393.128632,402.637817 410.391724,374.220551 
	C419.120819,359.851288 424.763245,344.239410 429.488739,328.301636 
	C435.108063,309.349213 438.522186,289.872498 442.401184,270.491547 
	C447.348846,245.771286 449.311676,220.845154 450.762634,195.776764 
	C451.413727,184.527832 447.943481,174.100739 446.238678,163.304886 
	C445.168976,156.530731 444.379089,149.704498 440.933197,143.716873 
	C436.058746,135.246994 433.102386,126.071556 430.423492,116.810799 
	C428.047943,108.598717 423.249878,102.158447 416.840637,96.923653 
	C404.938782,87.202690 391.183777,80.151131 377.885651,72.828362 
	C365.303101,65.899643 352.655975,58.675102 339.185730,53.329288 
	C331.996674,50.476234 326.555206,44.381268 319.342621,41.941029 
	C305.619171,37.297962 291.377777,34.342701 276.844208,34.420120 
	C263.904297,34.489040 250.939224,34.748829 237.993332,35.193451 
	C221.387924,35.763767 204.727737,36.697170 188.072510,36.342548 
	C185.930634,36.296944 183.704834,36.435452 181.643066,36.970730 
	C162.669022,41.896839 144.960220,48.688740 129.853760,62.343784 
	C111.096474,79.298874 92.099777,96.025421 73.104614,112.735001 
	C62.501324,122.062439 56.497887,134.128250 51.886051,147.183289 
	C44.050804,169.363052 37.879650,191.860153 35.942963,215.443970 
	C34.796089,229.409897 35.553921,243.391937 34.489883,257.365021 
	C31.933113,290.941040 37.929653,323.353668 49.646305,354.733521 
	C55.665405,370.854034 65.734695,383.909821 80.066116,393.909271 
	C89.805931,400.705017 100.637627,405.468658 111.141533,412.306976 
z"/>
<path fill="#000000" opacity="1.000000" stroke="none" 
	d="
M126.147461,135.273590 
	C128.174789,132.137878 130.726135,130.659103 134.070175,130.037491 
	C156.773987,125.817078 179.396103,121.122841 202.164993,117.298294 
	C218.580841,114.540886 235.197830,114.056465 251.881775,115.166412 
	C268.434998,116.267662 284.930756,117.993858 301.594452,117.931999 
	C321.679077,117.857437 341.049103,122.453941 360.023926,129.129303 
	C373.877197,134.002914 380.334229,144.280777 382.012634,157.712692 
	C383.573425,170.203354 383.608673,182.882782 384.371216,195.475723 
	C384.842804,203.263214 384.738556,211.167389 386.118683,218.797440 
	C387.856110,228.403259 387.177765,238.048279 387.783783,247.647873 
	C388.651733,261.396210 390.302948,275.276093 388.422943,289.005554 
	C386.430603,303.555206 381.282562,317.315216 375.397400,330.731232 
	C367.299683,349.191071 354.829773,363.902863 337.581512,374.544342 
	C330.723389,378.775543 323.363129,381.058258 315.402405,381.240631 
	C306.753876,381.438751 298.118042,381.453552 289.460022,380.538300 
	C283.886810,379.949127 278.177795,380.615753 272.530640,380.759399 
	C246.699051,381.416565 221.085114,376.665680 195.314178,377.230194 
	C171.753204,377.746246 149.760147,370.551483 127.281197,365.623260 
	C113.270279,362.551575 106.460899,352.855652 103.452721,339.288513 
	C99.689552,322.316345 103.306282,305.457275 103.141708,288.554260 
	C103.065742,280.752502 102.973289,272.948730 102.724281,265.151123 
	C101.463264,225.663086 107.453026,187.262604 119.932907,149.832642 
	C121.565460,144.936249 123.379150,140.098526 126.147461,135.273590 
M353.086212,138.458054 
	C351.994415,138.057083 350.888824,137.689911 349.812958,137.250031 
	C336.672119,131.877304 323.235443,127.481056 308.906891,127.200867 
	C293.593994,126.901428 278.268982,127.766785 262.953461,127.018982 
	C261.850800,126.965141 261.046783,127.176628 260.351013,128.053970 
	C257.601776,131.520569 254.244904,130.841156 250.915070,129.210327 
	C248.960754,128.253189 247.027969,127.542702 244.859970,127.104515 
	C238.147247,125.747787 231.345520,125.471275 224.561401,124.878456 
	C203.052414,122.998947 182.099777,125.425400 161.751633,132.735535 
	C155.479218,134.988937 149.178680,137.644287 142.426437,137.118179 
	C136.515427,136.657608 132.962280,138.964661 130.759094,144.131622 
	C130.303345,145.200485 129.679214,146.196350 129.161728,147.240234 
	C117.500320,170.764374 113.078705,196.239578 111.681007,221.928680 
	C110.290680,247.482513 108.963455,273.176086 110.475662,298.797791 
	C111.284531,312.502655 110.603073,326.386841 115.137985,339.809906 
	C117.810249,347.719727 122.397842,353.019714 129.936386,356.175507 
	C151.658264,365.268860 174.151764,370.403625 197.821259,369.710968 
	C200.814209,369.623383 203.773392,369.918518 206.764099,370.329803 
	C218.455566,371.937683 230.231018,374.063385 241.991318,373.408295 
	C265.446198,372.101807 288.921173,373.025085 312.379089,372.050537 
	C319.806763,371.741943 326.012177,370.070374 331.910736,366.048431 
	C333.420959,365.018707 334.955109,364.021637 336.507507,363.056641 
	C349.770386,354.812134 360.922241,344.632660 367.292206,329.954102 
	C373.600891,315.416809 378.089905,300.663910 379.460266,284.549225 
	C380.781738,269.010101 380.751312,253.636230 379.437622,238.273926 
	C377.330505,213.632919 374.390625,189.061584 371.677246,164.474640 
	C370.381531,152.733795 365.946014,143.012665 353.086212,138.458054 
z"/>
<path fill="#000000" opacity="1.000000" stroke="none" 
	d="
M195.423981,230.522995 
	C201.851547,220.824326 211.969482,216.640839 221.384842,211.954727 
	C234.957062,205.199677 248.483871,207.813782 261.234344,215.039749 
	C264.529602,216.907242 268.184814,217.215225 271.563904,218.561325 
	C283.089355,223.152603 293.078644,229.192490 298.389130,241.439926 
	C304.082458,254.570358 301.931152,266.605713 294.585907,277.918884 
	C287.290344,289.155487 277.919006,298.604156 266.685822,306.067688 
	C263.716217,308.040680 260.455292,309.296814 256.858673,309.296722 
	C241.018631,309.296417 225.267014,307.664734 209.677338,305.245972 
	C193.211670,302.691345 181.452896,286.406189 182.560440,269.780182 
	C183.499008,255.690857 187.991089,242.833237 195.423981,230.522995 
M290.621155,253.277634 
	C287.576172,246.644424 284.963684,239.614853 278.363464,235.550430 
	C266.971619,228.535217 254.001511,224.983215 241.593933,220.606567 
	C228.884903,216.123596 218.098175,224.643341 208.545349,231.686981 
	C197.666748,239.708145 193.893524,252.529602 192.564957,265.387268 
	C191.139404,279.183502 198.159164,294.425049 216.040771,296.045685 
	C226.223282,296.968536 236.363663,298.768829 246.587738,299.711517 
	C251.052444,300.123230 255.475128,301.170624 259.643311,298.573700 
	C264.579224,295.498444 269.568207,292.536652 274.280548,289.081879 
	C286.172394,280.363556 290.976715,268.466705 290.621155,253.277634 
z"/>
<path fill="#000000" opacity="1.000000" stroke="none" 
	d="
M297.801758,174.386612 
	C301.421143,160.062637 317.493866,151.493332 330.054474,156.770782 
	C336.996429,159.687500 344.528564,171.513428 344.326599,179.081116 
	C344.240967,182.290848 343.548157,185.334763 342.200653,188.234955 
	C339.867798,193.255829 335.766724,195.851730 330.394867,196.148483 
	C325.079010,196.442123 319.730377,196.488449 314.410065,196.282761 
	C304.009277,195.880676 297.777039,187.711060 297.801758,174.386612 
M308.264740,178.241333 
	C308.498413,182.905106 311.261261,185.629776 315.502289,186.522156 
	C319.204285,187.301117 323.061859,187.496201 326.861328,187.618256 
	C331.888550,187.779724 335.092712,184.038025 334.553741,178.999649 
	C334.089081,174.656143 324.147095,166.926666 319.779083,167.512985 
	C312.391357,168.504654 308.741302,171.646912 308.264740,178.241333 
z"/>
</svg>